# Made using Asset Forge (www.assetforge.io) version 1.3 

mtllib Caixa com cano.mtl 

g detail_airSmall_11

v 0.83 0.05 -2.17
v 0.83 0.37 -2.17
v 0.83 0.05 -1.83
v 0.83 0.37 -1.83
v 1.17 0.05 -2.17
v 1.17 0.37 -2.17
v 1.17 0.2364978 -2.064026
v 1.17 0.37 -1.83
v 1.17 0.2364978 -1.854026
v 1.17 0.09649784 -1.854026
v 1.17 0.09649784 -2.064026
v 1.17 0.05 -1.83
v 1.125516 0.37 -2.125515
v 0.8744844 0.37 -2.125515
v 0.8744844 0.37 -1.874484
v 1.125516 0.37 -1.874484
v 1.125516 0.09448441 -1.83
v 1.125516 0.3255156 -1.83
v 0.8744844 0.3255156 -1.83
v 0.8744844 0.09448441 -1.83
v 0.8744844 0.35 -1.874484
v 1.125516 0.35 -1.874484
v 1.137964 0.05 -1.862036
v 0.8620358 0.05 -1.862036
v 0.8620358 0.05 -2.137964
v 1.137964 0.05 -2.137964
v 1.125516 0.35 -2.125515
v 0.8744844 0.35 -2.125515
v 1.125516 0.09448441 -1.85
v 0.8744844 0.09448441 -1.85
v 0.8744844 0.3255156 -1.85
v 1.125516 0.3255156 -1.85
v 1.3 3.045564E-16 -2.064026
v 1.3 0.09649784 -2.064026
v 1.3 3.045564E-16 -1.854026
v 1.3 0.09649784 -1.854026
v 1.44 4.850343E-16 -2.064026
v 1.44 0.09649784 -2.064026
v 1.438802 0.1147715 -2.064026
v 1.43523 0.1327325 -2.064026
v 1.429343 0.1500735 -2.064026
v 1.421244 0.1664978 -2.064026
v 1.41107 0.1817244 -2.064026
v 1.398995 0.1954928 -2.064026
v 1.385227 0.2075673 -2.064026
v 1.37 0.2177414 -2.064026
v 1.353576 0.225841 -2.064026
v 1.336235 0.2317275 -2.064026
v 1.318274 0.2353001 -2.064026
v 1.3 0.2364978 -2.064026
v 1.43523 0.1327325 -1.854026
v 1.438802 0.1147715 -1.854026
v 1.398995 0.1954928 -1.854026
v 1.41107 0.1817244 -1.854026
v 1.385227 0.2075673 -1.854026
v 1.37 0.2177414 -1.854026
v 1.353576 0.225841 -1.854026
v 1.336235 0.2317275 -1.854026
v 1.421244 0.1664978 -1.854026
v 1.429343 0.1500735 -1.854026
v 1.44 4.850343E-16 -1.854026
v 1.44 0.09649784 -1.854026
v 1.318274 0.2353001 -1.854026
v 1.3 0.2364978 -1.854026
v 1.137964 0 -2.137964
v 1.137964 0 -1.862036
v 0.8620358 0 -1.862036
v 0.8620358 0 -2.137964
vn -1 0 0
vn 0 0 -1
vn 1 0 0
vn 0 1 0
vn 0 0 1
vn 0 -1 0
vn 0.9600419 0.2798564 0
vn 0.9883575 0.1521499 0
vn 0.9713487 0.2376589 0
vn 0.9940594 0.1088383 0
vn 0.7071064 0.7071071 0
vn 0.7798668 0.6259454 0
vn 0.8064609 0.5912874 0
vn 0.625945 0.7798672 0
vn 0.5912876 0.8064609 0
vn 0.518797 0.8548975 0
vn 0.4809641 0.8767403 0
vn 0.4027715 0.9153005 0
vn 0.362412 0.9320179 0
vn 0.279856 0.960042 0
vn 0.2376594 0.9713486 0
vn 0.8548977 0.5187966 0
vn 0.9153005 0.4027718 0
vn 0.8767406 0.4809637 0
vn 0.9320176 0.3624128 0
vn 0.9990481 0.04362207 0
vn 0.9997621 0.02181104 0
vn 0.1521512 0.9883572 0
vn 0.1088396 0.9940593 0
vn 0.04362296 0.9990481 0
vn 0.02181148 0.9997621 0
vt -2.17 0.05
vt -2.17 0.37
vt -1.83 0.05
vt -1.83 0.37
vt -0.83 0.05
vt -1.17 0.05
vt -0.83 0.37
vt -1.17 0.37
vt 2.17 0.05
vt 2.064026 0.2364978
vt 2.17 0.37
vt 1.83 0.37
vt 1.854026 0.2364978
vt 1.854026 0.09649784
vt 2.064026 0.09649784
vt 1.83 0.05
vt -1.17 -1.83
vt -1.125516 -2.125515
vt -1.17 -2.17
vt -0.83 -2.17
vt -0.8744844 -2.125515
vt -0.8744844 -1.874484
vt -1.125516 -1.874484
vt -0.83 -1.83
vt 0.83 0.05
vt 1.125516 0.09448441
vt 1.17 0.05
vt 1.17 0.37
vt 1.125516 0.3255156
vt 0.8744844 0.3255156
vt 0.8744844 0.09448441
vt 0.83 0.37
vt -0.8744844 0.35
vt -1.125516 0.35
vt -0.8744844 0.37
vt -1.125516 0.37
vt -1.17 2.17
vt -1.137964 1.862036
vt -1.17 1.83
vt -0.83 1.83
vt -0.8620358 1.862036
vt -0.8620358 2.137964
vt -1.137964 2.137964
vt -0.83 2.17
vt 1.125516 0.35
vt 0.8744844 0.35
vt 1.125516 0.37
vt 0.8744844 0.37
vt -1.125516 -1.85
vt -1.125516 -1.83
vt -0.8744844 -1.85
vt -0.8744844 -1.83
vt 1.85 0.3255156
vt 1.85 0.09448441
vt 1.83 0.3255156
vt 1.83 0.09448441
vt -2.125515 0.35
vt -2.125515 0.37
vt -1.874484 0.35
vt -1.874484 0.37
vt -1.125516 1.83
vt -1.125516 1.85
vt -0.8744844 1.83
vt -0.8744844 1.85
vt -1.85 0.09448441
vt -1.85 0.3255156
vt -1.83 0.09448441
vt -1.83 0.3255156
vt 2.125515 0.37
vt 2.125515 0.35
vt 1.874484 0.37
vt 1.874484 0.35
vt -2.064026 3.045564E-16
vt -2.064026 0.09649784
vt -1.854026 3.045564E-16
vt -1.854026 0.09649784
vt -1.3 3.045564E-16
vt -1.44 4.850343E-16
vt -1.3 0.09649784
vt -1.44 0.09649784
vt -1.438802 0.1147715
vt -1.17 0.09649784
vt -1.17 0.2364978
vt -1.43523 0.1327325
vt -1.429343 0.1500735
vt -1.421244 0.1664978
vt -1.41107 0.1817244
vt -1.398995 0.1954928
vt -1.385227 0.2075673
vt -1.37 0.2177414
vt -1.353576 0.225841
vt -1.336235 0.2317275
vt -1.318274 0.2353001
vt -1.3 0.2364978
vt 1.17 0.09649784
vt 1.3 0.09649784
vt 1.44 0.09649784
vt 2.064026 0.1327325
vt 2.064026 0.1147715
vt 1.854026 0.1327325
vt 1.854026 0.1147715
vt 2.064026 0.1954928
vt 2.064026 0.1817244
vt 1.854026 0.1954928
vt 1.854026 0.1817244
vt -1.385227 -2.064026
vt -1.385227 -1.854026
vt -1.37 -2.064026
vt -1.37 -1.854026
vt -1.353576 -2.064026
vt -1.353576 -1.854026
vt -1.336235 -2.064026
vt -1.336235 -1.854026
vt 2.064026 0.1664978
vt 2.064026 0.1500735
vt 1.854026 0.1664978
vt 1.854026 0.1500735
vt -1.44 1.854026
vt -1.44 2.064026
vt -1.3 1.854026
vt -1.3 2.064026
vt -1.318274 -2.064026
vt -1.318274 -1.854026
vt -1.3 -2.064026
vt -1.3 -1.854026
vt 2.064026 4.850343E-16
vt 1.854026 4.850343E-16
vt -1.17 -2.064026
vt -1.17 -1.854026
vt -1.17 1.854026
vt -1.17 2.064026
vt 1.3 3.045564E-16
vt 1.44 4.850343E-16
vt 1.438802 0.1147715
vt 1.17 0.2364978
vt 1.43523 0.1327325
vt 1.429343 0.1500735
vt 1.421244 0.1664978
vt 1.41107 0.1817244
vt 1.398995 0.1954928
vt 1.385227 0.2075673
vt 1.37 0.2177414
vt 1.353576 0.225841
vt 1.336235 0.2317275
vt 1.318274 0.2353001
vt 1.3 0.2364978
vt -1.398995 -2.064026
vt -1.398995 -1.854026
vt 2.137964 0.05
vt 2.137964 0
vt 1.862036 0.05
vt 1.862036 0
vt 1.137964 0
vt 0.8620358 0
vt 1.137964 0.05
vt 0.8620358 0.05
vt -2.137964 0
vt -2.137964 0.05
vt -1.862036 0
vt -1.862036 0.05
vt -0.8620358 0
vt -1.137964 0
vt -0.8620358 0.05
vt -1.137964 0.05

usemtl stone (Instance) (Instance)
usemap stone (Instance) (Instance)
f 3/3/1 2/2/1 1/1/1
f 2/2/1 3/3/1 4/4/1
f 2/7/2 5/6/2 1/5/2
f 5/6/2 2/7/2 6/8/2
f 6/11/3 7/10/3 5/9/3
f 7/10/3 6/11/3 8/12/3
f 7/10/3 8/12/3 9/13/3
f 9/13/3 8/12/3 10/14/3
f 11/15/3 5/9/3 7/10/3
f 5/9/3 11/15/3 12/16/3
f 12/16/3 11/15/3 10/14/3
f 12/16/3 10/14/3 8/12/3
f 6/19/4 13/18/4 8/17/4
f 13/18/4 6/19/4 2/20/4
f 13/18/4 2/20/4 14/21/4
f 14/21/4 2/20/4 15/22/4
f 16/23/4 8/17/4 13/18/4
f 8/17/4 16/23/4 4/24/4
f 4/24/4 16/23/4 15/22/4
f 4/24/4 15/22/4 2/20/4
f 12/27/5 17/26/5 3/25/5
f 17/26/5 12/27/5 8/28/5
f 17/26/5 8/28/5 18/29/5
f 18/29/5 8/28/5 19/30/5
f 20/31/5 3/25/5 17/26/5
f 3/25/5 20/31/5 4/32/5
f 4/32/5 20/31/5 19/30/5
f 4/32/5 19/30/5 8/28/5
f 15/35/2 22/34/2 21/33/2
f 22/34/2 15/35/2 16/36/2
f 12/39/6 23/38/6 5/37/6
f 23/38/6 12/39/6 3/40/6
f 23/38/6 3/40/6 24/41/6
f 24/41/6 3/40/6 25/42/6
f 26/43/6 5/37/6 23/38/6
f 5/37/6 26/43/6 1/44/6
f 1/44/6 26/43/6 25/42/6
f 1/44/6 25/42/6 3/40/6
f 13/47/5 28/46/5 27/45/5
f 28/46/5 13/47/5 14/48/5
f 30/51/4 17/50/4 29/49/4
f 17/50/4 30/51/4 20/52/4
f 19/55/3 30/54/3 31/53/3
f 30/54/3 19/55/3 20/56/3
f 22/59/1 13/58/1 27/57/1
f 13/58/1 22/59/1 16/60/1
f 19/63/6 32/62/6 18/61/6
f 32/62/6 19/63/6 31/64/6
f 17/67/1 32/66/1 29/65/1
f 32/66/1 17/67/1 18/68/1
f 15/71/3 28/70/3 14/69/3
f 28/70/3 15/71/3 21/72/3

usemtl lightStone (Instance) (Instance)
usemap lightStone (Instance) (Instance)
f 35/75/1 34/74/1 33/73/1
f 34/74/1 35/75/1 36/76/1
f 34/79/2 37/78/2 33/77/2
f 37/78/2 34/79/2 38/80/2
f 38/80/2 11/82/2 39/81/2
f 39/81/2 11/82/2 7/83/2
f 39/81/2 7/83/2 40/84/2
f 40/84/2 7/83/2 41/85/2
f 41/85/2 7/83/2 42/86/2
f 42/86/2 7/83/2 43/87/2
f 43/87/2 7/83/2 44/88/2
f 44/88/2 7/83/2 45/89/2
f 45/89/2 7/83/2 46/90/2
f 46/90/2 7/83/2 47/91/2
f 47/91/2 7/83/2 48/92/2
f 48/92/2 7/83/2 49/93/2
f 49/93/2 7/83/2 50/94/2
f 38/97/4 34/96/4 11/95/4
f 51/100/9 39/99/8 40/98/7
f 39/99/8 51/100/9 52/101/10
f 53/104/11 43/103/12 44/102/11
f 43/103/12 53/104/11 54/105/13
f 46/108/16 55/107/15 45/106/14
f 55/107/15 46/108/16 56/109/17
f 48/112/20 57/111/19 47/110/18
f 57/111/19 48/112/20 58/113/21
f 59/116/24 41/115/23 42/114/22
f 41/115/23 59/116/24 60/117/25
f 35/120/6 37/119/6 61/118/6
f 37/119/6 35/120/6 33/121/6
f 60/117/25 40/98/7 41/115/23
f 40/98/7 60/117/25 51/100/9
f 52/101/10 38/15/26 39/99/8
f 38/15/26 52/101/10 62/14/27
f 50/124/30 63/123/29 49/122/28
f 63/123/29 50/124/30 64/125/31
f 62/14/27 37/126/3 38/15/26
f 37/126/3 62/14/27 61/127/3
f 7/128/4 64/125/31 50/124/30
f 64/125/31 7/128/4 9/129/4
f 10/130/6 34/121/6 36/120/6
f 34/121/6 10/130/6 11/131/6
f 61/133/5 36/96/5 35/132/5
f 36/96/5 61/133/5 62/97/5
f 36/96/5 62/97/5 52/134/5
f 36/96/5 52/134/5 10/95/5
f 10/95/5 52/134/5 9/135/5
f 9/135/5 52/134/5 51/136/5
f 9/135/5 51/136/5 60/137/5
f 9/135/5 60/137/5 59/138/5
f 9/135/5 59/138/5 54/139/5
f 9/135/5 54/139/5 53/140/5
f 9/135/5 53/140/5 55/141/5
f 9/135/5 55/141/5 56/142/5
f 9/135/5 56/142/5 57/143/5
f 9/135/5 57/143/5 58/144/5
f 9/135/5 58/144/5 63/145/5
f 9/135/5 63/145/5 64/146/5
f 49/122/28 58/113/21 48/112/20
f 58/113/21 49/122/28 63/123/29
f 45/106/14 53/148/11 44/147/11
f 53/148/11 45/106/14 55/107/15
f 47/110/18 56/109/17 46/108/16
f 56/109/17 47/110/18 57/111/19
f 23/151/3 65/150/3 26/149/3
f 65/150/3 23/151/3 66/152/3
f 23/155/5 67/154/5 66/153/5
f 67/154/5 23/155/5 24/156/5
f 54/105/13 42/114/22 43/103/12
f 42/114/22 54/105/13 59/116/24
f 67/159/1 25/158/1 68/157/1
f 25/158/1 67/159/1 24/160/1
f 67/41/6 65/43/6 66/38/6
f 65/43/6 67/41/6 68/42/6
f 32/29/5 30/31/5 29/26/5
f 30/31/5 32/29/5 31/30/5
f 25/163/2 65/162/2 68/161/2
f 65/162/2 25/163/2 26/164/2
f 28/21/4 22/23/4 27/18/4
f 22/23/4 28/21/4 21/22/4
g detail_airSmall_12


usemtl stone (Instance) (Instance) (Instance)
usemap stone (Instance) (Instance) (Instance)
f 3/3/1 2/2/1 1/1/1
f 2/2/1 3/3/1 4/4/1
f 2/7/2 5/6/2 1/5/2
f 5/6/2 2/7/2 6/8/2
f 6/11/3 7/10/3 5/9/3
f 7/10/3 6/11/3 8/12/3
f 7/10/3 8/12/3 9/13/3
f 9/13/3 8/12/3 10/14/3
f 11/15/3 5/9/3 7/10/3
f 5/9/3 11/15/3 12/16/3
f 12/16/3 11/15/3 10/14/3
f 12/16/3 10/14/3 8/12/3
f 6/19/4 13/18/4 8/17/4
f 13/18/4 6/19/4 2/20/4
f 13/18/4 2/20/4 14/21/4
f 14/21/4 2/20/4 15/22/4
f 16/23/4 8/17/4 13/18/4
f 8/17/4 16/23/4 4/24/4
f 4/24/4 16/23/4 15/22/4
f 4/24/4 15/22/4 2/20/4
f 12/27/5 17/26/5 3/25/5
f 17/26/5 12/27/5 8/28/5
f 17/26/5 8/28/5 18/29/5
f 18/29/5 8/28/5 19/30/5
f 20/31/5 3/25/5 17/26/5
f 3/25/5 20/31/5 4/32/5
f 4/32/5 20/31/5 19/30/5
f 4/32/5 19/30/5 8/28/5
f 15/35/2 22/34/2 21/33/2
f 22/34/2 15/35/2 16/36/2
f 12/39/6 23/38/6 5/37/6
f 23/38/6 12/39/6 3/40/6
f 23/38/6 3/40/6 24/41/6
f 24/41/6 3/40/6 25/42/6
f 26/43/6 5/37/6 23/38/6
f 5/37/6 26/43/6 1/44/6
f 1/44/6 26/43/6 25/42/6
f 1/44/6 25/42/6 3/40/6
f 13/47/5 28/46/5 27/45/5
f 28/46/5 13/47/5 14/48/5
f 30/51/4 17/50/4 29/49/4
f 17/50/4 30/51/4 20/52/4
f 19/55/3 30/54/3 31/53/3
f 30/54/3 19/55/3 20/56/3
f 22/59/1 13/58/1 27/57/1
f 13/58/1 22/59/1 16/60/1
f 19/63/6 32/62/6 18/61/6
f 32/62/6 19/63/6 31/64/6
f 17/67/1 32/66/1 29/65/1
f 32/66/1 17/67/1 18/68/1
f 15/71/3 28/70/3 14/69/3
f 28/70/3 15/71/3 21/72/3

usemtl lightStone (Instance) (Instance) (Instance)
usemap lightStone (Instance) (Instance) (Instance)
f 35/75/1 34/74/1 33/73/1
f 34/74/1 35/75/1 36/76/1
f 34/79/2 37/78/2 33/77/2
f 37/78/2 34/79/2 38/80/2
f 38/80/2 11/82/2 39/81/2
f 39/81/2 11/82/2 7/83/2
f 39/81/2 7/83/2 40/84/2
f 40/84/2 7/83/2 41/85/2
f 41/85/2 7/83/2 42/86/2
f 42/86/2 7/83/2 43/87/2
f 43/87/2 7/83/2 44/88/2
f 44/88/2 7/83/2 45/89/2
f 45/89/2 7/83/2 46/90/2
f 46/90/2 7/83/2 47/91/2
f 47/91/2 7/83/2 48/92/2
f 48/92/2 7/83/2 49/93/2
f 49/93/2 7/83/2 50/94/2
f 38/97/4 34/96/4 11/95/4
f 51/100/9 39/99/8 40/98/7
f 39/99/8 51/100/9 52/101/10
f 53/104/11 43/103/12 44/102/11
f 43/103/12 53/104/11 54/105/13
f 46/108/16 55/107/15 45/106/14
f 55/107/15 46/108/16 56/109/17
f 48/112/20 57/111/19 47/110/18
f 57/111/19 48/112/20 58/113/21
f 59/116/24 41/115/23 42/114/22
f 41/115/23 59/116/24 60/117/25
f 35/120/6 37/119/6 61/118/6
f 37/119/6 35/120/6 33/121/6
f 60/117/25 40/98/7 41/115/23
f 40/98/7 60/117/25 51/100/9
f 52/101/10 38/15/26 39/99/8
f 38/15/26 52/101/10 62/14/27
f 50/124/30 63/123/29 49/122/28
f 63/123/29 50/124/30 64/125/31
f 62/14/27 37/126/3 38/15/26
f 37/126/3 62/14/27 61/127/3
f 7/128/4 64/125/31 50/124/30
f 64/125/31 7/128/4 9/129/4
f 10/130/6 34/121/6 36/120/6
f 34/121/6 10/130/6 11/131/6
f 61/133/5 36/96/5 35/132/5
f 36/96/5 61/133/5 62/97/5
f 36/96/5 62/97/5 52/134/5
f 36/96/5 52/134/5 10/95/5
f 10/95/5 52/134/5 9/135/5
f 9/135/5 52/134/5 51/136/5
f 9/135/5 51/136/5 60/137/5
f 9/135/5 60/137/5 59/138/5
f 9/135/5 59/138/5 54/139/5
f 9/135/5 54/139/5 53/140/5
f 9/135/5 53/140/5 55/141/5
f 9/135/5 55/141/5 56/142/5
f 9/135/5 56/142/5 57/143/5
f 9/135/5 57/143/5 58/144/5
f 9/135/5 58/144/5 63/145/5
f 9/135/5 63/145/5 64/146/5
f 49/122/28 58/113/21 48/112/20
f 58/113/21 49/122/28 63/123/29
f 45/106/14 53/148/11 44/147/11
f 53/148/11 45/106/14 55/107/15
f 47/110/18 56/109/17 46/108/16
f 56/109/17 47/110/18 57/111/19
f 23/151/3 65/150/3 26/149/3
f 65/150/3 23/151/3 66/152/3
f 23/155/5 67/154/5 66/153/5
f 67/154/5 23/155/5 24/156/5
f 54/105/13 42/114/22 43/103/12
f 42/114/22 54/105/13 59/116/24
f 67/159/1 25/158/1 68/157/1
f 25/158/1 67/159/1 24/160/1
f 67/41/6 65/43/6 66/38/6
f 65/43/6 67/41/6 68/42/6
f 32/29/5 30/31/5 29/26/5
f 30/31/5 32/29/5 31/30/5
f 25/163/2 65/162/2 68/161/2
f 65/162/2 25/163/2 26/164/2
f 28/21/4 22/23/4 27/18/4
f 22/23/4 28/21/4 21/22/4
g detail_airSmall_13


usemtl stone (Instance) (Instance) (Instance) (Instance)
usemap stone (Instance) (Instance) (Instance) (Instance)
f 3/3/1 2/2/1 1/1/1
f 2/2/1 3/3/1 4/4/1
f 2/7/2 5/6/2 1/5/2
f 5/6/2 2/7/2 6/8/2
f 6/11/3 7/10/3 5/9/3
f 7/10/3 6/11/3 8/12/3
f 7/10/3 8/12/3 9/13/3
f 9/13/3 8/12/3 10/14/3
f 11/15/3 5/9/3 7/10/3
f 5/9/3 11/15/3 12/16/3
f 12/16/3 11/15/3 10/14/3
f 12/16/3 10/14/3 8/12/3
f 6/19/4 13/18/4 8/17/4
f 13/18/4 6/19/4 2/20/4
f 13/18/4 2/20/4 14/21/4
f 14/21/4 2/20/4 15/22/4
f 16/23/4 8/17/4 13/18/4
f 8/17/4 16/23/4 4/24/4
f 4/24/4 16/23/4 15/22/4
f 4/24/4 15/22/4 2/20/4
f 12/27/5 17/26/5 3/25/5
f 17/26/5 12/27/5 8/28/5
f 17/26/5 8/28/5 18/29/5
f 18/29/5 8/28/5 19/30/5
f 20/31/5 3/25/5 17/26/5
f 3/25/5 20/31/5 4/32/5
f 4/32/5 20/31/5 19/30/5
f 4/32/5 19/30/5 8/28/5
f 15/35/2 22/34/2 21/33/2
f 22/34/2 15/35/2 16/36/2
f 12/39/6 23/38/6 5/37/6
f 23/38/6 12/39/6 3/40/6
f 23/38/6 3/40/6 24/41/6
f 24/41/6 3/40/6 25/42/6
f 26/43/6 5/37/6 23/38/6
f 5/37/6 26/43/6 1/44/6
f 1/44/6 26/43/6 25/42/6
f 1/44/6 25/42/6 3/40/6
f 13/47/5 28/46/5 27/45/5
f 28/46/5 13/47/5 14/48/5
f 30/51/4 17/50/4 29/49/4
f 17/50/4 30/51/4 20/52/4
f 19/55/3 30/54/3 31/53/3
f 30/54/3 19/55/3 20/56/3
f 22/59/1 13/58/1 27/57/1
f 13/58/1 22/59/1 16/60/1
f 19/63/6 32/62/6 18/61/6
f 32/62/6 19/63/6 31/64/6
f 17/67/1 32/66/1 29/65/1
f 32/66/1 17/67/1 18/68/1
f 15/71/3 28/70/3 14/69/3
f 28/70/3 15/71/3 21/72/3

usemtl lightStone (Instance) (Instance) (Instance) (Instance)
usemap lightStone (Instance) (Instance) (Instance) (Instance)
f 35/75/1 34/74/1 33/73/1
f 34/74/1 35/75/1 36/76/1
f 34/79/2 37/78/2 33/77/2
f 37/78/2 34/79/2 38/80/2
f 38/80/2 11/82/2 39/81/2
f 39/81/2 11/82/2 7/83/2
f 39/81/2 7/83/2 40/84/2
f 40/84/2 7/83/2 41/85/2
f 41/85/2 7/83/2 42/86/2
f 42/86/2 7/83/2 43/87/2
f 43/87/2 7/83/2 44/88/2
f 44/88/2 7/83/2 45/89/2
f 45/89/2 7/83/2 46/90/2
f 46/90/2 7/83/2 47/91/2
f 47/91/2 7/83/2 48/92/2
f 48/92/2 7/83/2 49/93/2
f 49/93/2 7/83/2 50/94/2
f 38/97/4 34/96/4 11/95/4
f 51/100/9 39/99/8 40/98/7
f 39/99/8 51/100/9 52/101/10
f 53/104/11 43/103/12 44/102/11
f 43/103/12 53/104/11 54/105/13
f 46/108/16 55/107/15 45/106/14
f 55/107/15 46/108/16 56/109/17
f 48/112/20 57/111/19 47/110/18
f 57/111/19 48/112/20 58/113/21
f 59/116/24 41/115/23 42/114/22
f 41/115/23 59/116/24 60/117/25
f 35/120/6 37/119/6 61/118/6
f 37/119/6 35/120/6 33/121/6
f 60/117/25 40/98/7 41/115/23
f 40/98/7 60/117/25 51/100/9
f 52/101/10 38/15/26 39/99/8
f 38/15/26 52/101/10 62/14/27
f 50/124/30 63/123/29 49/122/28
f 63/123/29 50/124/30 64/125/31
f 62/14/27 37/126/3 38/15/26
f 37/126/3 62/14/27 61/127/3
f 7/128/4 64/125/31 50/124/30
f 64/125/31 7/128/4 9/129/4
f 10/130/6 34/121/6 36/120/6
f 34/121/6 10/130/6 11/131/6
f 61/133/5 36/96/5 35/132/5
f 36/96/5 61/133/5 62/97/5
f 36/96/5 62/97/5 52/134/5
f 36/96/5 52/134/5 10/95/5
f 10/95/5 52/134/5 9/135/5
f 9/135/5 52/134/5 51/136/5
f 9/135/5 51/136/5 60/137/5
f 9/135/5 60/137/5 59/138/5
f 9/135/5 59/138/5 54/139/5
f 9/135/5 54/139/5 53/140/5
f 9/135/5 53/140/5 55/141/5
f 9/135/5 55/141/5 56/142/5
f 9/135/5 56/142/5 57/143/5
f 9/135/5 57/143/5 58/144/5
f 9/135/5 58/144/5 63/145/5
f 9/135/5 63/145/5 64/146/5
f 49/122/28 58/113/21 48/112/20
f 58/113/21 49/122/28 63/123/29
f 45/106/14 53/148/11 44/147/11
f 53/148/11 45/106/14 55/107/15
f 47/110/18 56/109/17 46/108/16
f 56/109/17 47/110/18 57/111/19
f 23/151/3 65/150/3 26/149/3
f 65/150/3 23/151/3 66/152/3
f 23/155/5 67/154/5 66/153/5
f 67/154/5 23/155/5 24/156/5
f 54/105/13 42/114/22 43/103/12
f 42/114/22 54/105/13 59/116/24
f 67/159/1 25/158/1 68/157/1
f 25/158/1 67/159/1 24/160/1
f 67/41/6 65/43/6 66/38/6
f 65/43/6 67/41/6 68/42/6
f 32/29/5 30/31/5 29/26/5
f 30/31/5 32/29/5 31/30/5
f 25/163/2 65/162/2 68/161/2
f 65/162/2 25/163/2 26/164/2
f 28/21/4 22/23/4 27/18/4
f 22/23/4 28/21/4 21/22/4
g detail_airSmall_14


usemtl stone (Instance) (Instance) (Instance) (Instance) (Instance)
usemap stone (Instance) (Instance) (Instance) (Instance) (Instance)
f 3/3/1 2/2/1 1/1/1
f 2/2/1 3/3/1 4/4/1
f 2/7/2 5/6/2 1/5/2
f 5/6/2 2/7/2 6/8/2
f 6/11/3 7/10/3 5/9/3
f 7/10/3 6/11/3 8/12/3
f 7/10/3 8/12/3 9/13/3
f 9/13/3 8/12/3 10/14/3
f 11/15/3 5/9/3 7/10/3
f 5/9/3 11/15/3 12/16/3
f 12/16/3 11/15/3 10/14/3
f 12/16/3 10/14/3 8/12/3
f 6/19/4 13/18/4 8/17/4
f 13/18/4 6/19/4 2/20/4
f 13/18/4 2/20/4 14/21/4
f 14/21/4 2/20/4 15/22/4
f 16/23/4 8/17/4 13/18/4
f 8/17/4 16/23/4 4/24/4
f 4/24/4 16/23/4 15/22/4
f 4/24/4 15/22/4 2/20/4
f 12/27/5 17/26/5 3/25/5
f 17/26/5 12/27/5 8/28/5
f 17/26/5 8/28/5 18/29/5
f 18/29/5 8/28/5 19/30/5
f 20/31/5 3/25/5 17/26/5
f 3/25/5 20/31/5 4/32/5
f 4/32/5 20/31/5 19/30/5
f 4/32/5 19/30/5 8/28/5
f 15/35/2 22/34/2 21/33/2
f 22/34/2 15/35/2 16/36/2
f 12/39/6 23/38/6 5/37/6
f 23/38/6 12/39/6 3/40/6
f 23/38/6 3/40/6 24/41/6
f 24/41/6 3/40/6 25/42/6
f 26/43/6 5/37/6 23/38/6
f 5/37/6 26/43/6 1/44/6
f 1/44/6 26/43/6 25/42/6
f 1/44/6 25/42/6 3/40/6
f 13/47/5 28/46/5 27/45/5
f 28/46/5 13/47/5 14/48/5
f 30/51/4 17/50/4 29/49/4
f 17/50/4 30/51/4 20/52/4
f 19/55/3 30/54/3 31/53/3
f 30/54/3 19/55/3 20/56/3
f 22/59/1 13/58/1 27/57/1
f 13/58/1 22/59/1 16/60/1
f 19/63/6 32/62/6 18/61/6
f 32/62/6 19/63/6 31/64/6
f 17/67/1 32/66/1 29/65/1
f 32/66/1 17/67/1 18/68/1
f 15/71/3 28/70/3 14/69/3
f 28/70/3 15/71/3 21/72/3

usemtl lightStone (Instance) (Instance) (Instance) (Instance) (Instance)
usemap lightStone (Instance) (Instance) (Instance) (Instance) (Instance)
f 35/75/1 34/74/1 33/73/1
f 34/74/1 35/75/1 36/76/1
f 34/79/2 37/78/2 33/77/2
f 37/78/2 34/79/2 38/80/2
f 38/80/2 11/82/2 39/81/2
f 39/81/2 11/82/2 7/83/2
f 39/81/2 7/83/2 40/84/2
f 40/84/2 7/83/2 41/85/2
f 41/85/2 7/83/2 42/86/2
f 42/86/2 7/83/2 43/87/2
f 43/87/2 7/83/2 44/88/2
f 44/88/2 7/83/2 45/89/2
f 45/89/2 7/83/2 46/90/2
f 46/90/2 7/83/2 47/91/2
f 47/91/2 7/83/2 48/92/2
f 48/92/2 7/83/2 49/93/2
f 49/93/2 7/83/2 50/94/2
f 38/97/4 34/96/4 11/95/4
f 51/100/9 39/99/8 40/98/7
f 39/99/8 51/100/9 52/101/10
f 53/104/11 43/103/12 44/102/11
f 43/103/12 53/104/11 54/105/13
f 46/108/16 55/107/15 45/106/14
f 55/107/15 46/108/16 56/109/17
f 48/112/20 57/111/19 47/110/18
f 57/111/19 48/112/20 58/113/21
f 59/116/24 41/115/23 42/114/22
f 41/115/23 59/116/24 60/117/25
f 35/120/6 37/119/6 61/118/6
f 37/119/6 35/120/6 33/121/6
f 60/117/25 40/98/7 41/115/23
f 40/98/7 60/117/25 51/100/9
f 52/101/10 38/15/26 39/99/8
f 38/15/26 52/101/10 62/14/27
f 50/124/30 63/123/29 49/122/28
f 63/123/29 50/124/30 64/125/31
f 62/14/27 37/126/3 38/15/26
f 37/126/3 62/14/27 61/127/3
f 7/128/4 64/125/31 50/124/30
f 64/125/31 7/128/4 9/129/4
f 10/130/6 34/121/6 36/120/6
f 34/121/6 10/130/6 11/131/6
f 61/133/5 36/96/5 35/132/5
f 36/96/5 61/133/5 62/97/5
f 36/96/5 62/97/5 52/134/5
f 36/96/5 52/134/5 10/95/5
f 10/95/5 52/134/5 9/135/5
f 9/135/5 52/134/5 51/136/5
f 9/135/5 51/136/5 60/137/5
f 9/135/5 60/137/5 59/138/5
f 9/135/5 59/138/5 54/139/5
f 9/135/5 54/139/5 53/140/5
f 9/135/5 53/140/5 55/141/5
f 9/135/5 55/141/5 56/142/5
f 9/135/5 56/142/5 57/143/5
f 9/135/5 57/143/5 58/144/5
f 9/135/5 58/144/5 63/145/5
f 9/135/5 63/145/5 64/146/5
f 49/122/28 58/113/21 48/112/20
f 58/113/21 49/122/28 63/123/29
f 45/106/14 53/148/11 44/147/11
f 53/148/11 45/106/14 55/107/15
f 47/110/18 56/109/17 46/108/16
f 56/109/17 47/110/18 57/111/19
f 23/151/3 65/150/3 26/149/3
f 65/150/3 23/151/3 66/152/3
f 23/155/5 67/154/5 66/153/5
f 67/154/5 23/155/5 24/156/5
f 54/105/13 42/114/22 43/103/12
f 42/114/22 54/105/13 59/116/24
f 67/159/1 25/158/1 68/157/1
f 25/158/1 67/159/1 24/160/1
f 67/41/6 65/43/6 66/38/6
f 65/43/6 67/41/6 68/42/6
f 32/29/5 30/31/5 29/26/5
f 30/31/5 32/29/5 31/30/5
f 25/163/2 65/162/2 68/161/2
f 65/162/2 25/163/2 26/164/2
f 28/21/4 22/23/4 27/18/4
f 22/23/4 28/21/4 21/22/4
