# Made using Asset Forge (www.assetforge.io) version 1.3 

mtllib colum.mtl 

g engine_plane_14

v 1.215 -0.04000014 -7.2
v 1.215 0.4549999 -7.2
v 0.785 -0.04000014 -7.2
v 0.785 0.4549999 -7.2
v 1.215 0.4549999 -6.785
v 1.215 -0.04000008 -6.785
v 0.785 0.4549999 -6.785
v 0.785 -0.04000008 -6.785
v 0.8496028 -0.04000008 -6.849603
v 0.8496028 -0.04000014 -7.135397
v 1.150397 -0.04000014 -7.135397
v 1.150397 -0.04000008 -6.849603
v 1.090238 0.08999991 -6.906762
v 0.9097617 0.08999991 -6.906762
v 1.090238 0.08999974 -7.078238
v 0.9097617 0.08999974 -7.078238
v 1.215 0.9499999 -6.785
v 0.785 0.9499999 -6.785
v 1.12685 1.44 -6.870075
v 0.87315 1.44 -6.870075
v 0.785 0.9499999 -7.2
v 1.215 0.9499999 -7.2
v 1.12685 1.44 -7.114925
v 0.87315 1.44 -7.114925
vn 0 -1.192093E-07 -1
vn 0 1.192093E-07 1
vn 0 -1 1.192093E-07
vn 0 -0.4024965 -0.9154217
vn -0.9075369 -0.4199726 5.960464E-08
vn -0.9075369 -0.4199726 5.960464E-08
vn 0.9075369 -0.4199726 5.960464E-08
vn 0.9075369 -0.4199726 5.960464E-08
vn -1 0 0
vn 0 -0.4024962 0.9154218
vn 1 0 0
vn 0 0.08584869 0.9963083
vn 0 0.1710634 0.9852601
vn -0.9982445 0.05922689 -7.450581E-09
vn -0.9929596 0.1184538 -1.490116E-08
vn 0 0.05720872 -0.9983624
vn 0 0.1710632 -0.9852601
vn 0 0.1144175 -0.9934329
vn 0 0.1710632 -0.9852601
vn -0.9842008 0.1770558 -1.490116E-08
vn 0.9982445 0.05922689 -7.450581E-09
vn 0.9929596 0.1184538 -1.490116E-08
vn 0.9842008 0.1770558 -1.490116E-08
vn 0 1 -1.192093E-07
vt -1.215 -0.04000017
vt -1.215 0.4549999
vt -0.785 -0.04000017
vt -0.785 0.4549999
vt 1.215 0.4549999
vt 1.215 -0.04000012
vt 0.785 0.4549999
vt 0.785 -0.04000012
vt -1.215 6.785
vt -0.8496028 6.849603
vt -0.785 6.785
vt -0.785 7.2
vt -0.8496028 7.135397
vt -1.150397 7.135397
vt -1.215 7.2
vt -1.150397 6.849603
vt -1.150397 -0.04000013
vt -1.090238 0.08999982
vt -0.8496028 -0.04000013
vt -0.9097617 0.08999982
vt -6.849603 -0.04000013
vt -7.135397 -0.04000016
vt -6.906762 0.08999982
vt -7.078238 0.08999979
vt 7.135397 -0.04000016
vt 6.849603 -0.04000013
vt 7.078238 0.08999979
vt 6.906762 0.08999982
vt -6.785 -0.04000012
vt -7.2 -0.04000017
vt -6.785 0.4549999
vt -7.2 0.4549999
vt 1.150397 -0.04000016
vt 0.8496028 -0.04000016
vt 1.090238 0.08999979
vt 0.9097617 0.08999979
vt 7.2 -0.04000017
vt 6.785 -0.04000012
vt 7.2 0.4549999
vt 6.785 0.4549999
vt 1.215 0.9499999
vt 0.785 0.9499999
vt 1.12685 1.44
vt 0.87315 1.44
vt -6.785 0.9499999
vt -7.2 0.9499999
vt -1.215 0.9499999
vt -1.12685 1.44
vt -0.785 0.9499999
vt -0.87315 1.44
vt -6.870075 1.44
vt -7.114925 1.44
vt 7.2 0.9499999
vt 6.785 0.9499999
vt 7.114925 1.44
vt 6.870075 1.44
vt -1.12685 -6.870075
vt -0.87315 -6.870075
vt -1.12685 -7.114925
vt -0.87315 -7.114925
vt -0.9097617 6.906762
vt -1.090238 6.906762
vt -0.9097617 7.078238
vt -1.090238 7.078238

usemtl _defaultMat (Instance) (Instance)
usemap _defaultMat (Instance) (Instance)
f 3/3/1 2/2/1 1/1/1
f 2/2/1 3/3/1 4/4/1
f 7/7/2 6/6/2 5/5/2
f 6/6/2 7/7/2 8/8/2
f 8/11/3 9/10/3 6/9/3
f 9/10/3 8/11/3 3/12/3
f 9/10/3 3/12/3 10/13/3
f 10/13/3 3/12/3 11/14/3
f 6/9/3 12/16/3 1/15/3
f 12/16/3 6/9/3 9/10/3
f 1/15/3 12/16/3 11/14/3
f 1/15/3 11/14/3 3/12/3
f 9/19/4 13/18/4 12/17/4
f 13/18/4 9/19/4 14/20/4
f 13/23/5 11/22/5 12/21/5
f 11/22/5 13/23/5 15/24/6
f 16/27/7 9/26/7 10/25/7
f 9/26/7 16/27/7 14/28/8
f 7/31/9 3/30/9 8/29/9
f 3/30/9 7/31/9 4/32/9
f 15/35/10 10/34/10 11/33/10
f 10/34/10 15/35/10 16/36/10
f 2/39/11 6/38/11 1/37/11
f 6/38/11 2/39/11 5/40/11

usemtl blueSteel (Instance) (Instance)
usemap blueSteel (Instance) (Instance)
f 19/43/13 18/42/12 17/41/12
f 18/42/12 19/43/13 20/44/13
f 18/45/14 4/32/9 7/31/9
f 4/32/9 18/45/14 21/46/15
f 21/49/18 23/48/17 22/47/16
f 23/48/17 21/49/18 24/50/19
f 20/51/20 21/46/15 18/45/14
f 21/46/15 20/51/20 24/52/20
f 18/42/12 5/5/2 17/41/12
f 5/5/2 18/42/12 7/7/2
f 4/4/1 22/47/16 2/2/1
f 22/47/16 4/4/1 21/49/18
f 23/55/23 17/54/22 22/53/21
f 17/54/22 23/55/23 19/56/23
f 22/53/21 5/40/11 2/39/11
f 5/40/11 22/53/21 17/54/22
f 23/59/24 20/58/24 19/57/24
f 20/58/24 23/59/24 24/60/24

usemtl black (Instance) (Instance)
usemap black (Instance) (Instance)
f 16/63/3 13/62/3 14/61/3
f 13/62/3 16/63/3 15/64/3
g engine_plane_15


usemtl _defaultMat (Instance) (Instance) (Instance)
usemap _defaultMat (Instance) (Instance) (Instance)
f 3/3/1 2/2/1 1/1/1
f 2/2/1 3/3/1 4/4/1
f 7/7/2 6/6/2 5/5/2
f 6/6/2 7/7/2 8/8/2
f 8/11/3 9/10/3 6/9/3
f 9/10/3 8/11/3 3/12/3
f 9/10/3 3/12/3 10/13/3
f 10/13/3 3/12/3 11/14/3
f 6/9/3 12/16/3 1/15/3
f 12/16/3 6/9/3 9/10/3
f 1/15/3 12/16/3 11/14/3
f 1/15/3 11/14/3 3/12/3
f 9/19/4 13/18/4 12/17/4
f 13/18/4 9/19/4 14/20/4
f 13/23/5 11/22/5 12/21/5
f 11/22/5 13/23/5 15/24/6
f 16/27/7 9/26/7 10/25/7
f 9/26/7 16/27/7 14/28/8
f 7/31/9 3/30/9 8/29/9
f 3/30/9 7/31/9 4/32/9
f 15/35/10 10/34/10 11/33/10
f 10/34/10 15/35/10 16/36/10
f 2/39/11 6/38/11 1/37/11
f 6/38/11 2/39/11 5/40/11

usemtl blueSteel (Instance) (Instance) (Instance)
usemap blueSteel (Instance) (Instance) (Instance)
f 19/43/13 18/42/12 17/41/12
f 18/42/12 19/43/13 20/44/13
f 18/45/14 4/32/9 7/31/9
f 4/32/9 18/45/14 21/46/15
f 21/49/18 23/48/17 22/47/16
f 23/48/17 21/49/18 24/50/19
f 20/51/20 21/46/15 18/45/14
f 21/46/15 20/51/20 24/52/20
f 18/42/12 5/5/2 17/41/12
f 5/5/2 18/42/12 7/7/2
f 4/4/1 22/47/16 2/2/1
f 22/47/16 4/4/1 21/49/18
f 23/55/23 17/54/22 22/53/21
f 17/54/22 23/55/23 19/56/23
f 22/53/21 5/40/11 2/39/11
f 5/40/11 22/53/21 17/54/22
f 23/59/24 20/58/24 19/57/24
f 20/58/24 23/59/24 24/60/24

usemtl black (Instance) (Instance) (Instance)
usemap black (Instance) (Instance) (Instance)
f 16/63/3 13/62/3 14/61/3
f 13/62/3 16/63/3 15/64/3
