# Made using Asset Forge (www.assetforge.io) version 1.3 

mtllib Meia porta.mtl 

g door_large_5

v 1.5825 1.444855 -0.8469646
v 1.4175 1.444855 -0.8469646
v 1.5825 1.487474 -0.849758
v 1.4175 1.487474 -0.849758
v 1.5825 1.804779E-16 -0.8469646
v 1.4175 1.804779E-16 -0.8469646
v 1.5825 1.768579 -1.130863
v 1.5825 1.760247 -1.088973
v 1.4175 1.768579 -1.130863
v 1.4175 1.760247 -1.088973
v 1.5825 1.529364 -0.8580904
v 1.4175 1.529364 -0.8580904
v 1.5825 1.569808 -0.8718193
v 1.4175 1.569808 -0.8718193
v 1.5825 1.746518 -1.048529
v 1.5825 1.727628 -1.010224
v 1.4175 1.746518 -1.048529
v 1.4175 1.727628 -1.010224
v 1.5825 1.771373 -1.5
v 1.5825 1.771373 -1.173482
v 1.4175 1.771373 -1.5
v 1.4175 1.771373 -1.173482
v 1.5825 1.703899 -0.9747109
v 1.5825 1.675738 -0.9425994
v 1.4175 1.703899 -0.9747109
v 1.4175 1.675738 -0.9425994
v 1.4175 0.09034304 -1.454829
v 1.4175 1.804779E-16 -1.5
v 1.4175 0.09034304 -0.9373077
v 1.4175 0.5505148 -0.9373077
v 1.4175 0.6408578 -0.9373077
v 1.4175 1.441897 -0.9373077
v 1.4175 1.643626 -0.9144384
v 1.4175 1.608114 -0.8907097
v 1.4175 1.68103 -1.454829
v 1.4175 1.68103 -1.17644
v 1.4175 1.678817 -1.142681
v 1.4175 1.672795 -1.112406
v 1.4175 1.662873 -1.083176
v 1.4175 1.64922 -1.055492
v 1.4175 1.632071 -1.029826
v 1.4175 1.611719 -1.006619
v 1.4175 1.588511 -0.9862661
v 1.4175 1.562845 -0.9691169
v 1.4175 1.535161 -0.9554645
v 1.4175 1.505931 -0.9455423
v 1.4175 1.475657 -0.9395204
v 1.4175 0.5505148 -1.454829
v 1.4175 0.6408578 -1.454829
v 1.5825 1.643626 -0.9144384
v 1.5825 1.632071 -1.029826
v 1.5825 1.64922 -1.055492
v 1.5425 1.632071 -1.029826
v 1.5425 1.64922 -1.055492
v 1.5825 1.608114 -0.8907097
v 1.5425 1.535161 -0.9554645
v 1.5825 1.535161 -0.9554645
v 1.5425 1.562845 -0.9691169
v 1.5825 1.562845 -0.9691169
v 1.5825 1.662873 -1.083176
v 1.5425 1.662873 -1.083176
v 1.5425 1.588511 -0.9862661
v 1.5825 1.588511 -0.9862661
v 1.5425 1.611719 -1.006619
v 1.5825 1.611719 -1.006619
v 1.5425 1.505931 -0.9455423
v 1.5825 1.505931 -0.9455423
v 1.5425 1.475657 -0.9395204
v 1.5825 1.475657 -0.9395204
v 1.5425 0.6408578 -1.454829
v 1.5425 1.633217 -1.407016
v 1.5425 1.68103 -1.454829
v 1.5425 1.68103 -1.17644
v 1.5425 1.633217 -1.178005
v 1.5425 1.631312 -1.148935
v 1.5425 1.678817 -1.142681
v 1.5425 1.626513 -1.124807
v 1.5425 1.672795 -1.112406
v 1.5425 1.618605 -1.101513
v 1.5425 1.607725 -1.079449
v 1.5425 1.594058 -1.058995
v 1.5425 1.577837 -1.0405
v 1.5425 1.559342 -1.02428
v 1.5425 1.538888 -1.010613
v 1.5425 1.516825 -0.9997323
v 1.5425 1.49353 -0.9918248
v 1.5425 1.469402 -0.9870255
v 1.5425 1.440332 -0.9851202
v 1.5425 0.6408578 -0.9373077
v 1.5425 0.6886703 -0.9851202
v 1.5425 0.6886703 -1.407016
v 1.5425 1.441897 -0.9373077
v 1.5825 0.09034304 -1.454829
v 1.5425 0.09034304 -1.454829
v 1.5825 0.5505148 -1.454829
v 1.5425 0.5505148 -1.454829
v 1.5825 1.68103 -1.17644
v 1.5825 1.68103 -1.454829
v 1.5825 1.672795 -1.112406
v 1.5825 1.678817 -1.142681
v 1.5825 1.441897 -0.9373077
v 1.5825 0.6408578 -0.9373077
v 1.5825 0.09034304 -0.9373077
v 1.5425 0.09034304 -0.9373077
v 1.4575 0.5505148 -1.454829
v 1.4575 0.1381555 -1.407016
v 1.4575 0.09034304 -1.454829
v 1.4575 0.09034304 -0.9373077
v 1.4575 0.1381555 -0.9851202
v 1.4575 0.5027023 -0.9851202
v 1.4575 0.5027023 -1.407016
v 1.4575 0.5505148 -0.9373077
v 1.4575 1.64922 -1.055492
v 1.4575 1.662873 -1.083176
v 1.4575 1.475657 -0.9395204
v 1.4575 1.505931 -0.9455423
v 1.4575 1.441897 -0.9373077
v 1.4575 1.632071 -1.029826
v 1.4575 1.68103 -1.17644
v 1.4575 1.68103 -1.454829
v 1.4575 1.678817 -1.142681
v 1.4575 1.611719 -1.006619
v 1.4575 1.672795 -1.112406
v 1.4575 1.535161 -0.9554645
v 1.4575 1.562845 -0.9691169
v 1.4575 1.588511 -0.9862661
v 1.5825 1.804779E-16 -1.5
v 1.5825 0.6408578 -1.454829
v 1.5825 0.5505148 -0.9373077
v 1.4575 0.6408578 -1.454829
v 1.5425 0.5027023 -1.407016
v 1.5425 0.5505148 -0.9373077
v 1.5425 0.5027023 -0.9851202
v 1.5425 0.1381555 -0.9851202
v 1.5425 0.1381555 -1.407016
v 1.4575 0.6886703 -1.407016
v 1.4575 0.6408578 -0.9373077
v 1.4575 0.6886703 -0.9851202
v 1.4575 1.440332 -0.9851202
v 1.4575 1.633217 -1.407016
v 1.4575 1.633217 -1.178005
v 1.4575 1.631312 -1.148935
v 1.4575 1.626513 -1.124807
v 1.4575 1.618605 -1.101513
v 1.4575 1.607725 -1.079449
v 1.4575 1.594058 -1.058995
v 1.4575 1.577837 -1.0405
v 1.4575 1.559342 -1.02428
v 1.4575 1.538888 -1.010613
v 1.4575 1.516825 -0.9997323
v 1.4575 1.49353 -0.9918248
v 1.4575 1.469402 -0.9870255
vn 0 0.02181138 0.9997621
vn 0 0.04362275 0.9990481
vn 0 0.1088391 0.9940594
vn 0 0.1521506 0.9883574
vn 0 0 1
vn 0 0.9940593 0.1088399
vn 0 0.9713487 0.2376589
vn 0 0.9883572 0.1521513
vn 0 0.9600422 0.2798552
vn 0 0.2376589 0.9713487
vn 0 0.2798557 0.960042
vn 0 0.3624122 0.9320179
vn 0 0.4027719 0.9153005
vn 0 0.9320179 0.3624123
vn 0 0.8767397 0.4809652
vn 0 0.9152998 0.4027733
vn 0 0.8548979 0.5187963
vn 0 1 0
vn 0 0.9997621 0.02181166
vn 0 0.9990481 0.04362332
vn 0 0.8064618 0.5912862
vn 0 0.7071069 0.7071066
vn 0 0.7798673 0.6259449
vn 0 0.707107 0.7071065
vn -1 0 0
vn 0 0.5912874 0.8064609
vn 0 0.6259457 0.7798667
vn 0 -0.7798674 -0.6259447
vn 0 -0.8548981 -0.518796
vn 0 -0.8064617 -0.5912864
vn 0 -0.8767404 -0.480964
vn 0 0.4809641 0.8767404
vn 0 0.5187966 0.8548977
vn 0 -0.3624122 -0.9320179
vn 0 -0.4027721 -0.9153003
vn 0 -0.4809646 -0.87674
vn 0 -0.5187973 -0.8548972
vn 0 -0.9152998 -0.4027734
vn 0 -0.9320169 -0.3624149
vn 0 -0.5912877 -0.8064607
vn 0 -0.6259455 -0.7798668
vn 0 -0.7071069 -0.7071066
vn 0 -0.7071069 -0.7071066
vn 0 -0.2376588 -0.9713487
vn 0 -0.2798556 -0.9600421
vn 0 -0.1088393 -0.9940593
vn 0 -0.1521507 -0.9883574
vn 1 0 0
vn 0 -0.9990481 -0.04362208
vn 0 -1 0
vn 0 -0.9997621 -0.02181104
vn 0 -0.9600416 -0.2798576
vn 0 -0.9883576 -0.1521487
vn 0 -0.9713488 -0.2376587
vn 0 -0.9940596 -0.1088377
vn 0 -0.02181147 -0.9997621
vn 0 -0.04362294 -0.9990481
vn 0 0 -1
vn 0 -0.8767404 -0.4809639
vn 0 -0.1088393 -0.9940593
vn 0 -0.1521506 -0.9883574
vn 0 -0.02181147 -0.9997621
vn 0 -0.04362293 -0.9990481
vn 0 -0.7071069 -0.7071066
vt 1.5825 1.444855
vt 1.4175 1.444855
vt 1.5825 1.487474
vt 1.4175 1.487474
vt 1.5825 1.804779E-16
vt 1.4175 1.804779E-16
vt -1.5825 -1.130863
vt -1.5825 -1.088973
vt -1.4175 -1.130863
vt -1.4175 -1.088973
vt 1.5825 1.529364
vt 1.4175 1.529364
vt 1.5825 1.569808
vt 1.4175 1.569808
vt -1.5825 -1.048529
vt -1.5825 -1.010224
vt -1.4175 -1.048529
vt -1.4175 -1.010224
vt -1.5825 -1.5
vt -1.5825 -1.173482
vt -1.4175 -1.5
vt -1.4175 -1.173482
vt -1.5825 -0.9747109
vt -1.5825 -0.9425994
vt -1.4175 -0.9747109
vt -1.4175 -0.9425994
vt -1.5 1.771373
vt -1.454829 0.09034304
vt -1.5 1.804779E-16
vt -0.8469646 1.804779E-16
vt -0.9373077 0.09034304
vt -0.9373077 0.5505148
vt -0.9373077 0.6408578
vt -0.9373077 1.441897
vt -0.9144384 1.643626
vt -0.8907097 1.608114
vt -0.8718193 1.569808
vt -0.8580904 1.529364
vt -0.849758 1.487474
vt -0.8469646 1.444855
vt -1.454829 1.68103
vt -1.173482 1.771373
vt -1.17644 1.68103
vt -1.142681 1.678817
vt -1.130863 1.768579
vt -1.112406 1.672795
vt -1.088973 1.760247
vt -1.083176 1.662873
vt -1.048529 1.746518
vt -1.055492 1.64922
vt -1.029826 1.632071
vt -1.010224 1.727628
vt -1.006619 1.611719
vt -0.9747109 1.703899
vt -0.9862661 1.588511
vt -0.9691169 1.562845
vt -0.9425994 1.675738
vt -0.9554645 1.535161
vt -0.9455423 1.505931
vt -0.9395204 1.475657
vt 1.4175 0.5505148
vt 1.4175 0.09034304
vt 1.4175 1.68103
vt 1.4175 0.6408578
vt -1.454829 0.5505148
vt -1.454829 0.6408578
vt 1.5825 1.643626
vt 1.4175 1.643626
vt 1.5825 1.675738
vt 1.4175 1.675738
vt -1.5825 1.029826
vt -1.5825 1.055492
vt -1.5425 1.029826
vt -1.5425 1.055492
vt 1.5825 1.608114
vt 1.4175 1.608114
vt -1.5425 1.535161
vt -1.5825 1.535161
vt -1.5425 1.562845
vt -1.5825 1.562845
vt -1.5825 1.083176
vt -1.5425 1.083176
vt -1.5425 1.588511
vt -1.5825 1.588511
vt -1.5425 1.611719
vt -1.5825 1.611719
vt -1.5825 1.006619
vt -1.5425 1.006619
vt -1.5425 1.505931
vt -1.5825 1.505931
vt -1.5425 1.475657
vt -1.5825 1.475657
vt 1.454829 0.6408578
vt 1.407016 1.633217
vt 1.454829 1.68103
vt 1.17644 1.68103
vt 1.178005 1.633217
vt 1.148935 1.631312
vt 1.142681 1.678817
vt 1.124807 1.626513
vt 1.112406 1.672795
vt 1.101513 1.618605
vt 1.083176 1.662873
vt 1.079449 1.607725
vt 1.055492 1.64922
vt 1.058995 1.594058
vt 1.0405 1.577837
vt 1.029826 1.632071
vt 1.02428 1.559342
vt 1.006619 1.611719
vt 1.010613 1.538888
vt 0.9997323 1.516825
vt 0.9862661 1.588511
vt 0.9918248 1.49353
vt 0.9870255 1.469402
vt 0.9851202 1.440332
vt 0.9691169 1.562845
vt 0.9373077 0.6408578
vt 0.9851202 0.6886703
vt 1.407016 0.6886703
vt 0.9554645 1.535161
vt 0.9455423 1.505931
vt 0.9395204 1.475657
vt 0.9373077 1.441897
vt 1.5825 0.09034304
vt 1.5425 0.09034304
vt 1.5825 0.5505148
vt 1.5425 0.5505148
vt -1.5825 1.17644
vt -1.5825 1.454829
vt -1.5425 1.17644
vt -1.5425 1.454829
vt -1.5825 1.112406
vt -1.5825 1.142681
vt -1.5425 1.112406
vt -1.5425 1.142681
vt -1.5425 1.441897
vt -1.5825 1.441897
vt -1.5425 0.6408578
vt -1.5825 0.6408578
vt -1.5825 -1.454829
vt -1.5825 -0.9373077
vt -1.5425 -1.454829
vt -1.5425 -0.9373077
vt -1.407016 0.1381555
vt -0.9851202 0.1381555
vt -0.9851202 0.5027023
vt -1.407016 0.5027023
vt -1.4575 1.055492
vt -1.4575 1.083176
vt -1.4175 1.055492
vt -1.4175 1.083176
vt -1.4175 1.475657
vt -1.4575 1.475657
vt -1.4175 1.505931
vt -1.4575 1.505931
vt -1.4175 1.441897
vt -1.4575 1.441897
vt -1.4575 -1.454829
vt -1.4575 -0.9373077
vt -1.4175 -1.454829
vt -1.4175 -0.9373077
vt -1.4575 1.029826
vt -1.4175 1.029826
vt -1.4575 1.17644
vt -1.4575 1.454829
vt -1.4175 1.17644
vt -1.4175 1.454829
vt -1.4175 0.09034304
vt -1.4575 0.09034304
vt -1.4175 0.5505148
vt -1.4575 0.5505148
vt -1.4575 1.142681
vt -1.4175 1.142681
vt -1.4575 1.006619
vt -1.4175 1.006619
vt -1.4575 1.112406
vt -1.4175 1.112406
vt -1.4175 1.535161
vt -1.4575 1.535161
vt -1.4175 1.562845
vt -1.4575 1.562845
vt -1.4175 1.588511
vt -1.4575 1.588511
vt -1.5825 0.8469646
vt -1.5825 1.5
vt -1.4175 0.8469646
vt -1.4175 1.5
vt -1.4175 1.611719
vt -1.4575 1.611719
vt 1.454829 0.5505148
vt 0.9373077 0.5505148
vt 1.5825 1.441897
vt 1.5825 0.6408578
vt 1.5 1.804779E-16
vt 1.5 1.771373
vt 1.173482 1.771373
vt 1.130863 1.768579
vt 1.088973 1.760247
vt 1.048529 1.746518
vt 1.010224 1.727628
vt 0.9747109 1.703899
vt 0.9425994 1.675738
vt 0.9144384 1.643626
vt 0.8469646 1.804779E-16
vt 0.9373077 0.09034304
vt 1.454829 0.09034304
vt 0.8907097 1.608114
vt 0.8718193 1.569808
vt 0.8580904 1.529364
vt 0.849758 1.487474
vt 0.8469646 1.444855
vt 1.5825 1.68103
vt -1.4175 1.804779E-16
vt -1.5825 1.804779E-16
vt -1.4175 1.771373
vt -1.5825 1.771373
vt 1.4575 0.6408578
vt 1.4575 1.68103
vt 1.407016 0.5027023
vt 0.9851202 0.5027023
vt 0.9851202 0.1381555
vt 1.407016 0.1381555
vt -1.5825 0.9373077
vt -1.5425 0.9373077
vt -1.5425 0.09034304
vt -1.5825 0.09034304
vt -1.5425 0.5505148
vt -1.5825 0.5505148
vt 1.5425 0.6408578
vt 1.5425 1.68103
vt -1.407016 0.6886703
vt -0.9851202 0.6886703
vt -0.9851202 1.440332
vt -1.407016 1.633217
vt -1.178005 1.633217
vt -1.148935 1.631312
vt -1.124807 1.626513
vt -1.101513 1.618605
vt -1.079449 1.607725
vt -1.058995 1.594058
vt -1.0405 1.577837
vt -1.02428 1.559342
vt -1.010613 1.538888
vt -0.9997323 1.516825
vt -0.9918248 1.49353
vt -0.9870255 1.469402
vt -1.4575 0.9373077
vt -1.4175 0.9373077
vt -1.4175 0.6408578
vt -1.4575 0.6408578
vt 1.4575 0.09034304
vt 1.4575 0.5505148

usemtl lightStone (Instance)
usemap lightStone (Instance)
f 3/3/3 2/2/2 1/1/1
f 2/2/2 3/3/3 4/4/4
f 1/1/1 6/6/5 5/5/5
f 6/6/5 1/1/1 2/2/2
f 9/9/8 8/8/7 7/7/6
f 8/8/7 9/9/8 10/10/9
f 13/13/12 12/12/11 11/11/10
f 12/12/11 13/13/12 14/14/13
f 17/17/16 16/16/15 15/15/14
f 16/16/15 17/17/16 18/18/17
f 21/21/18 20/20/19 19/19/18
f 20/20/19 21/21/18 22/22/20
f 25/25/23 24/24/22 23/23/21
f 24/24/22 25/25/23 26/26/24
f 28/29/25 27/28/25 21/27/25
f 27/28/25 28/29/25 6/30/25
f 27/28/25 6/30/25 29/31/25
f 29/31/25 6/30/25 30/32/25
f 30/32/25 6/30/25 31/33/25
f 31/33/25 6/30/25 32/34/25
f 32/34/25 6/30/25 33/35/25
f 33/35/25 6/30/25 34/36/25
f 34/36/25 6/30/25 14/37/25
f 14/37/25 6/30/25 12/38/25
f 12/38/25 6/30/25 4/39/25
f 4/39/25 6/30/25 2/40/25
f 35/41/25 21/27/25 27/28/25
f 21/27/25 35/41/25 22/42/25
f 22/42/25 35/41/25 36/43/25
f 22/42/25 36/43/25 37/44/25
f 22/42/25 37/44/25 9/45/25
f 9/45/25 37/44/25 38/46/25
f 9/45/25 38/46/25 10/47/25
f 10/47/25 38/46/25 39/48/25
f 10/47/25 39/48/25 17/49/25
f 17/49/25 39/48/25 40/50/25
f 17/49/25 40/50/25 41/51/25
f 17/49/25 41/51/25 18/52/25
f 18/52/25 41/51/25 42/53/25
f 18/52/25 42/53/25 25/54/25
f 25/54/25 42/53/25 43/55/25
f 25/54/25 43/55/25 44/56/25
f 25/54/25 44/56/25 26/57/25
f 26/57/25 44/56/25 45/58/25
f 26/57/25 45/58/25 46/59/25
f 26/57/25 46/59/25 47/60/25
f 26/57/25 47/60/25 33/35/25
f 33/35/25 47/60/25 32/34/25
f 35/63/18 27/62/18 48/61/18
f 35/63/18 48/61/18 49/64/18
f 30/32/25 49/66/25 48/65/25
f 49/66/25 30/32/25 31/33/25
f 10/10/9 15/15/14 8/8/7
f 15/15/14 10/10/9 17/17/16
f 24/69/22 33/68/27 50/67/26
f 33/68/27 24/69/22 26/70/24
f 53/73/30 52/72/29 51/71/28
f 52/72/29 53/73/30 54/74/31
f 22/22/20 7/7/6 20/20/19
f 7/7/6 22/22/20 9/9/8
f 55/75/32 14/14/13 13/13/12
f 14/14/13 55/75/32 34/76/33
f 50/67/26 34/76/33 55/75/32
f 34/76/33 50/67/26 33/68/27
f 11/11/10 4/4/4 3/3/3
f 4/4/4 11/11/10 12/12/11
f 58/79/36 57/78/35 56/77/34
f 57/78/35 58/79/36 59/80/37
f 54/74/31 60/81/38 52/72/29
f 60/81/38 54/74/31 61/82/39
f 64/85/42 63/84/41 62/83/40
f 63/84/41 64/85/42 65/86/43
f 64/88/42 51/71/28 65/87/43
f 51/71/28 64/88/42 53/73/30
f 56/77/34 67/90/45 66/89/44
f 67/90/45 56/77/34 57/78/35
f 66/89/44 69/92/47 68/91/46
f 69/92/47 66/89/44 67/90/45
f 72/95/48 71/94/48 70/93/48
f 71/94/48 72/95/48 73/96/48
f 71/94/48 73/96/48 74/97/48
f 74/97/48 73/96/48 75/98/48
f 75/98/48 73/96/48 76/99/48
f 75/98/48 76/99/48 77/100/48
f 77/100/48 76/99/48 78/101/48
f 77/100/48 78/101/48 79/102/48
f 79/102/48 78/101/48 61/103/48
f 79/102/48 61/103/48 80/104/48
f 80/104/48 61/103/48 54/105/48
f 80/104/48 54/105/48 81/106/48
f 81/106/48 54/105/48 82/107/48
f 82/107/48 54/105/48 53/108/48
f 82/107/48 53/108/48 83/109/48
f 83/109/48 53/108/48 64/110/48
f 83/109/48 64/110/48 84/111/48
f 84/111/48 64/110/48 85/112/48
f 85/112/48 64/110/48 62/113/48
f 85/112/48 62/113/48 86/114/48
f 86/114/48 62/113/48 87/115/48
f 87/115/48 62/113/48 88/116/48
f 88/116/48 62/113/48 58/117/48
f 89/118/48 88/116/48 58/117/48
f 89/118/48 90/119/48 88/116/48
f 89/118/48 91/120/48 90/119/48
f 70/93/48 91/120/48 89/118/48
f 91/120/48 70/93/48 71/94/48
f 89/118/48 58/117/48 56/121/48
f 89/118/48 56/121/48 66/122/48
f 89/118/48 66/122/48 68/123/48
f 89/118/48 68/123/48 92/124/48
f 95/127/5 94/126/5 93/125/5
f 94/126/5 95/127/5 96/128/5
f 73/131/51 98/130/50 97/129/49
f 98/130/50 73/131/51 72/132/50
f 78/135/54 100/134/53 99/133/52
f 100/134/53 78/135/54 76/136/55
f 68/91/46 101/138/57 92/137/56
f 101/138/57 68/91/46 69/92/47
f 62/83/40 59/80/37 58/79/36
f 59/80/37 62/83/40 63/84/41
f 92/137/56 102/140/58 89/139/58
f 102/140/58 92/137/56 101/138/57
f 94/143/18 103/142/18 93/141/18
f 103/142/18 94/143/18 104/144/18
f 76/136/55 97/129/49 100/134/53
f 97/129/49 76/136/55 73/131/51
f 107/28/25 106/145/25 105/65/25
f 106/145/25 107/28/25 108/31/25
f 106/145/25 108/31/25 109/146/25
f 109/146/25 108/31/25 110/147/25
f 111/148/25 105/65/25 106/145/25
f 105/65/25 111/148/25 112/32/25
f 112/32/25 111/148/25 110/147/25
f 112/32/25 110/147/25 108/31/25
f 40/151/59 114/150/38 113/149/29
f 114/150/38 40/151/59 39/152/39
f 46/155/44 115/154/61 47/153/60
f 115/154/61 46/155/44 116/156/45
f 47/153/60 117/158/63 32/157/62
f 117/158/63 47/153/60 115/154/61
f 27/161/18 108/160/18 107/159/18
f 108/160/18 27/161/18 29/162/18
f 41/164/30 113/149/29 118/163/28
f 113/149/29 41/164/30 40/151/59
f 36/167/51 120/166/50 119/165/49
f 120/166/50 36/167/51 35/168/50
f 30/171/58 108/170/58 29/169/58
f 108/170/58 30/171/58 112/172/58
f 37/174/55 119/165/49 121/173/53
f 119/165/49 37/174/55 36/167/51
f 42/176/64 118/163/28 122/175/64
f 118/163/28 42/176/64 41/164/30
f 38/178/54 121/173/53 123/177/52
f 121/173/53 38/178/54 37/174/55
f 44/181/36 124/180/35 45/179/34
f 124/180/35 44/181/36 125/182/37
f 45/179/34 116/156/45 46/155/44
f 116/156/45 45/179/34 124/180/35
f 39/152/39 123/177/52 114/150/38
f 123/177/52 39/152/39 38/178/54
f 18/18/17 23/23/21 16/16/15
f 23/23/21 18/18/17 25/25/23
f 43/183/40 125/182/37 44/181/36
f 125/182/37 43/183/40 126/184/41
f 61/82/39 99/133/52 60/81/38
f 99/133/52 61/82/39 78/135/54
f 6/187/50 127/186/50 5/185/50
f 127/186/50 6/187/50 28/188/50
f 42/189/64 126/184/41 43/183/40
f 126/184/41 42/189/64 122/190/64
f 102/118/48 95/191/48 128/93/48
f 95/191/48 102/118/48 129/192/48
f 129/127/18 102/194/18 101/193/18
f 129/127/18 101/193/18 103/125/18
f 19/196/48 98/95/48 127/195/48
f 98/95/48 19/196/48 20/197/48
f 98/95/48 20/197/48 97/96/48
f 97/96/48 20/197/48 100/99/48
f 100/99/48 20/197/48 7/198/48
f 100/99/48 7/198/48 99/101/48
f 99/101/48 7/198/48 8/199/48
f 99/101/48 8/199/48 60/103/48
f 60/103/48 8/199/48 15/200/48
f 60/103/48 15/200/48 52/105/48
f 52/105/48 15/200/48 51/108/48
f 51/108/48 15/200/48 16/201/48
f 51/108/48 16/201/48 65/110/48
f 65/110/48 16/201/48 23/202/48
f 65/110/48 23/202/48 63/113/48
f 63/113/48 23/202/48 59/117/48
f 59/117/48 23/202/48 24/203/48
f 59/117/48 24/203/48 57/121/48
f 57/121/48 24/203/48 67/122/48
f 67/122/48 24/203/48 69/123/48
f 69/123/48 24/203/48 50/204/48
f 69/123/48 50/204/48 101/124/48
f 5/205/48 101/124/48 50/204/48
f 5/205/48 103/206/48 101/124/48
f 5/205/48 93/207/48 103/206/48
f 127/195/48 93/207/48 5/205/48
f 93/207/48 127/195/48 98/95/48
f 5/205/48 50/204/48 55/208/48
f 5/205/48 55/208/48 13/209/48
f 5/205/48 13/209/48 11/210/48
f 5/205/48 11/210/48 3/211/48
f 5/205/48 3/211/48 1/212/48
f 93/125/18 98/213/18 128/194/18
f 93/125/18 128/194/18 95/127/18
f 21/216/58 127/215/58 28/214/58
f 127/215/58 21/216/58 19/217/58
f 120/219/5 49/64/5 130/218/5
f 49/64/5 120/219/5 35/63/5
f 96/191/48 131/220/48 94/207/48
f 131/220/48 96/191/48 132/192/48
f 131/220/48 132/192/48 133/221/48
f 133/221/48 132/192/48 134/222/48
f 135/223/48 94/207/48 131/220/48
f 94/207/48 135/223/48 104/206/48
f 104/206/48 135/223/48 134/222/48
f 104/206/48 134/222/48 132/192/48
f 132/225/50 95/130/50 129/224/50
f 95/130/50 132/225/50 96/132/50
f 70/143/18 102/142/18 128/141/18
f 102/142/18 70/143/18 89/144/18
f 132/228/58 103/227/58 104/226/58
f 103/227/58 132/228/58 129/229/58
f 98/213/5 70/230/5 128/194/5
f 70/230/5 98/213/5 72/231/5
f 130/66/25 136/232/25 120/41/25
f 136/232/25 130/66/25 137/33/25
f 136/232/25 137/33/25 138/233/25
f 138/233/25 137/33/25 139/234/25
f 139/234/25 137/33/25 125/56/25
f 125/56/25 137/33/25 124/58/25
f 124/58/25 137/33/25 116/59/25
f 116/59/25 137/33/25 115/60/25
f 115/60/25 137/33/25 117/34/25
f 140/235/25 120/41/25 136/232/25
f 120/41/25 140/235/25 119/43/25
f 119/43/25 140/235/25 141/236/25
f 119/43/25 141/236/25 142/237/25
f 119/43/25 142/237/25 121/44/25
f 121/44/25 142/237/25 143/238/25
f 121/44/25 143/238/25 123/46/25
f 123/46/25 143/238/25 144/239/25
f 123/46/25 144/239/25 114/48/25
f 114/48/25 144/239/25 145/240/25
f 114/48/25 145/240/25 113/50/25
f 113/50/25 145/240/25 146/241/25
f 113/50/25 146/241/25 147/242/25
f 113/50/25 147/242/25 118/51/25
f 118/51/25 147/242/25 148/243/25
f 118/51/25 148/243/25 122/53/25
f 122/53/25 148/243/25 149/244/25
f 122/53/25 149/244/25 150/245/25
f 122/53/25 150/245/25 126/55/25
f 126/55/25 150/245/25 151/246/25
f 126/55/25 151/246/25 152/247/25
f 126/55/25 152/247/25 139/234/25
f 126/55/25 139/234/25 125/56/25
f 30/249/50 105/166/50 112/248/50
f 105/166/50 30/249/50 48/168/50
f 49/161/18 137/160/18 130/159/18
f 137/160/18 49/161/18 31/162/18
f 32/157/62 137/251/58 31/250/58
f 137/251/58 32/157/62 117/158/63
f 105/253/5 27/62/5 107/252/5
f 27/62/5 105/253/5 48/61/5

usemtl wood (Instance)
usemap wood (Instance)
f 74/97/48 91/120/48 71/94/48
f 91/120/48 74/97/48 90/119/48
f 90/119/48 74/97/48 75/98/48
f 90/119/48 75/98/48 77/100/48
f 90/119/48 77/100/48 79/102/48
f 90/119/48 79/102/48 80/104/48
f 90/119/48 80/104/48 81/106/48
f 90/119/48 81/106/48 82/107/48
f 90/119/48 82/107/48 83/109/48
f 90/119/48 83/109/48 84/111/48
f 90/119/48 84/111/48 85/112/48
f 90/119/48 85/112/48 86/114/48
f 90/119/48 86/114/48 87/115/48
f 90/119/48 87/115/48 88/116/48
f 133/221/48 135/223/48 131/220/48
f 135/223/48 133/221/48 134/222/48
f 138/233/25 140/235/25 136/232/25
f 140/235/25 138/233/25 141/236/25
f 141/236/25 138/233/25 142/237/25
f 142/237/25 138/233/25 143/238/25
f 143/238/25 138/233/25 144/239/25
f 144/239/25 138/233/25 145/240/25
f 145/240/25 138/233/25 146/241/25
f 146/241/25 138/233/25 147/242/25
f 147/242/25 138/233/25 148/243/25
f 148/243/25 138/233/25 149/244/25
f 149/244/25 138/233/25 150/245/25
f 150/245/25 138/233/25 151/246/25
f 151/246/25 138/233/25 152/247/25
f 152/247/25 138/233/25 139/234/25
f 109/146/25 111/148/25 106/145/25
f 111/148/25 109/146/25 110/147/25
