# Made using Asset Forge (www.assetforge.io) version 1.3 

mtllib Motor.mtl 

g detail_engine_20

v 1.0875 0.11 -1.82932
v 1.0875 0.11 -2.29524
v 0.9125 0.11 -1.82932
v 0.9125 0.11 -2.29524
v 0.933947 0.1455175 -2.29524
v 0.825 0.2763158 -2.29524
v 0.865133 0.2763158 -2.29524
v 0.89954 0.341715 -2.29524
v 0.9125 0.4426317 -2.29524
v 0.933947 0.4071142 -2.29524
v 1.066053 0.4071142 -2.29524
v 1.066053 0.1455175 -2.29524
v 1.175 0.2763158 -2.29524
v 1.134867 0.2763158 -2.29524
v 1.10046 0.341715 -2.29524
v 1.0875 0.4426317 -2.29524
v 1.175 0.2763158 -1.82932
v 0.825 0.2763158 -1.82932
v 0.9125 0.4426317 -1.82932
v 1.0875 0.4426317 -1.82932
v 1.108189 0.4033073 -2.256015
v 1.108189 0.4033073 -1.868545
v 1.154311 0.3156402 -1.868545
v 1.154311 0.3156402 -2.256015
v 1.0792 0.4909016 -2.18032
v 1.0792 0.4426317 -2.18032
v 1.0792 0.4909016 -1.974149
v 1.0792 0.4426317 -1.974149
v 0.8456503 0.3155669 -2.256088
v 0.8456503 0.3155669 -1.868472
v 0.8918497 0.4033806 -1.868472
v 0.8918497 0.4033806 -2.256088
v 0.9208 0.4426317 -1.974149
v 0.9208 0.4909016 -1.974149
v 0.9208 0.4426317 -2.18032
v 0.9208 0.4909016 -2.18032
v 1.10046 0.341715 -2.34524
v 1.134867 0.2763158 -2.34524
v 1.10046 0.341715 -2.23524
v 1.066053 0.4071142 -2.23524
v 0.933947 0.4071142 -2.23524
v 0.89954 0.341715 -2.23524
v 0.9278591 0.6068912 -2.23032
v 0.9278591 0.6068912 -1.924149
v 0.9216658 0.6044105 -2.23032
v 0.9216658 0.6044105 -1.924149
v 1.1092 0.4909016 -2.23032
v 1.1092 0.4909016 -1.924149
v 0.8908 0.4909016 -1.924149
v 0.8908 0.4909016 -2.23032
v 0.7946745 0.3529093 -2.256088
v 0.840874 0.440723 -2.256088
v 0.840874 0.440723 -1.868472
v 1.0592 0.6089016 -2.23032
v 1.0592 0.6089016 -1.924149
v 0.9408 0.6089016 -2.23032
v 0.9408 0.6089016 -1.924149
v 1.1092 0.5499017 -2.23032
v 1.1092 0.5499017 -1.924149
v 0.8908 0.5499017 -2.23032
v 0.8908 0.5499017 -1.924149
v 1.108772 0.5576027 -1.924149
v 0.8912277 0.5576027 -1.924149
v 1.107496 0.565172 -1.924149
v 0.8925037 0.565172 -1.924149
v 1.105394 0.57248 -1.924149
v 0.894606 0.57248 -1.924149
v 1.102501 0.5794017 -1.924149
v 0.8974987 0.5794017 -1.924149
v 1.098868 0.5858185 -1.924149
v 0.9011323 0.5858185 -1.924149
v 1.094555 0.591621 -1.924149
v 0.9054447 0.591621 -1.924149
v 1.089638 0.5967095 -1.924149
v 0.9103619 0.5967095 -1.924149
v 1.0842 0.6009971 -1.924149
v 0.9158 0.6009971 -1.924149
v 1.078334 0.6044105 -1.924149
v 1.072141 0.6068912 -1.924149
v 1.065726 0.6083969 -1.924149
v 0.9342737 0.6083969 -1.924149
v 0.8974987 0.5794017 -2.23032
v 0.9011323 0.5858185 -2.23032
v 0.9158 0.6009971 -2.23032
v 0.9103619 0.5967095 -2.23032
v 0.9208516 0.5209532 -2.23032
v 0.9208516 0.5490677 -2.23032
v 0.9211401 0.5542613 -2.23032
v 0.8912277 0.5576027 -2.23032
v 0.9218544 0.5584989 -2.23032
v 0.8925037 0.565172 -2.23032
v 0.923005 0.5624986 -2.23032
v 0.9245338 0.5661567 -2.23032
v 0.894606 0.57248 -2.23032
v 0.926364 0.5693889 -2.23032
v 0.9284053 0.5721354 -2.23032
v 0.930562 0.5743673 -2.23032
v 0.9327441 0.5760878 -2.23032
v 0.9348806 0.577331 -2.23032
v 0.9369309 0.5781522 -2.23032
v 0.938893 0.5786128 -2.23032
v 0.9419604 0.57885 -2.23032
v 1.05804 0.57885 -2.23032
v 1.079148 0.5209532 -2.23032
v 1.079148 0.5490677 -2.23032
v 1.07886 0.5542613 -2.23032
v 1.108772 0.5576027 -2.23032
v 1.078146 0.5584989 -2.23032
v 1.107496 0.565172 -2.23032
v 1.076995 0.5624986 -2.23032
v 1.075466 0.5661567 -2.23032
v 1.105394 0.57248 -2.23032
v 1.073636 0.5693889 -2.23032
v 1.071595 0.5721354 -2.23032
v 1.069438 0.5743673 -2.23032
v 1.102501 0.5794017 -2.23032
v 1.067256 0.5760878 -2.23032
v 1.065119 0.577331 -2.23032
v 1.063069 0.5781522 -2.23032
v 1.061107 0.5786128 -2.23032
v 1.098868 0.5858185 -2.23032
v 0.9054447 0.591621 -2.23032
v 1.094555 0.591621 -2.23032
v 1.089638 0.5967095 -2.23032
v 1.0842 0.6009971 -2.23032
v 1.078334 0.6044105 -2.23032
v 1.072141 0.6068912 -2.23032
v 0.9342737 0.6083969 -2.23032
v 1.065726 0.6083969 -2.23032
v 1.205287 0.3529826 -1.868545
v 1.205287 0.3529826 -2.256015
v 1.159165 0.4406497 -2.256015
v 1.159165 0.4406497 -1.868545
v 0.7946745 0.3529093 -1.868472
v 0.933947 0.1455175 -2.34524
v 1.066053 0.1455175 -2.34524
v 0.865133 0.2763158 -2.34524
v 0.89954 0.341715 -2.34524
vn 0 -1 0
vn 0 0 -1
vn 0 0 1
vn 0.8849942 -0.465602 0
vn 0.8849942 0.465602 0
vn 0.8849943 0.4656019 0
vn 0.8849943 0.4656019 0
vn 0.8849942 0.465602 0
vn -0.8849942 -0.465602 0
vn 1 0 0
vn -0.8849942 0.465602 0
vn -0.8849942 0.465602 0
vn 0 1 0
vn -1 0 0
vn -0.8849943 -0.4656019 0
vn 0.8849943 -0.4656019 0
vn -0.2769783 0.9608762 0
vn -0.324874 0.9457573 0
vn -0.4165266 0.9091235 0
vn -0.4603378 0.8877438 0
vn 0.5909539 0.8067053 0
vn 0.05144265 0.9986759 0
vn 0.02572132 0.9996692 0
vn -0.02572132 0.9996692 0
vn -0.05144265 0.9986759 0
vn 0.9993159 0.03698513 0
vn 0.9998289 0.01849256 0
vn -0.9998289 0.01849256 0
vn -0.9993159 0.03698513 0
vn -0.906604 0.4219824 0
vn -0.8491029 0.5282274 0
vn -0.8890799 0.457752 0
vn -0.8265436 0.5628728 0
vn -0.5428782 0.8398114 0
vn -0.5816941 0.8134075 0
vn -0.6706503 0.7417737 0
vn -0.949652 0.313307 0
vn -0.9368462 0.3497416 0
vn -0.979125 0.203259 0
vn -0.970759 0.2400564 0
vn -0.9957119 0.09250863 0
vn -0.9915817 0.1294818 0
vn -0.1279116 0.9917856 0
vn -0.1785084 0.9839384 0
vn -0.7762154 0.6304678 0
vn -0.7483277 0.6633292 0
vn 0.1785084 0.9839384 0
vn 0.1279116 0.9917856 0
vn 0.970759 0.2400564 0
vn 0.9915817 0.1294818 0
vn 0.979125 0.203259 0
vn 0.9957119 0.09250863 0
vn 0.6706503 0.7417737 0
vn 0.5816941 0.8134075 0
vn 0.5428782 0.8398114 0
vn 0.9368462 0.3497416 0
vn 0.949652 0.313307 0
vn 0.7483277 0.6633292 0
vn 0.7762154 0.6304678 0
vn 0.4603378 0.8877438 0
vn 0.4165266 0.9091235 0
vn 0.324874 0.9457573 0
vn 0.2769783 0.9608762 0
vn 0.8265436 0.5628728 0
vn 0.8491029 0.5282273 0
vn 0.5909536 -0.8067055 0
vn -0.5909538 0.8067054 0
vn -0.5909538 -0.8067054 0
vn 0.8890799 0.457752 0
vn 0.906604 0.4219824 0
vn 0.8849941 -0.4656021 0
vn -0.8849941 -0.4656021 0
vt -1.0875 1.82932
vt -1.0875 2.29524
vt -0.9125 1.82932
vt -0.9125 2.29524
vt -1.0875 0.11
vt -0.933947 0.1455175
vt -0.9125 0.11
vt -0.825 0.2763158
vt -0.865133 0.2763158
vt -0.89954 0.341715
vt -0.9125 0.4426317
vt -0.933947 0.4071142
vt -1.066053 0.4071142
vt -1.066053 0.1455175
vt -1.175 0.2763158
vt -1.134867 0.2763158
vt -1.10046 0.341715
vt -1.0875 0.4426317
vt 1.0875 0.11
vt 0.9125 0.11
vt 1.175 0.2763158
vt 0.825 0.2763158
vt 0.9125 0.4426317
vt 1.0875 0.4426317
vt 2.29524 0.2763158
vt 2.29524 0.11
vt 1.82932 0.2763158
vt 1.82932 0.11
vt 2.256015 0.4033073
vt 2.29524 0.4426317
vt 1.82932 0.4426317
vt 1.868545 0.4033073
vt 1.868545 0.3156402
vt 2.256015 0.3156402
vt -2.29524 0.11
vt -2.29524 0.2763158
vt -1.82932 0.11
vt -1.82932 0.2763158
vt 2.18032 0.4909016
vt 2.18032 0.4426317
vt 1.974149 0.4909016
vt 1.974149 0.4426317
vt -2.29524 0.4426317
vt -2.256088 0.3155669
vt -1.868472 0.3155669
vt -1.868472 0.4033806
vt -2.256088 0.4033806
vt -1.82932 0.4426317
vt 0.9208 0.4426317
vt 0.9208 0.4909016
vt 1.0792 0.4426317
vt 1.0792 0.4909016
vt -1.0875 -1.82932
vt -1.0792 -2.18032
vt -1.0875 -2.29524
vt -0.9125 -2.29524
vt -0.9208 -2.18032
vt -0.9208 -1.974149
vt -1.0792 -1.974149
vt -0.9125 -1.82932
vt -0.9208 0.4426317
vt -1.0792 0.4426317
vt -0.9208 0.4909016
vt -1.0792 0.4909016
vt -2.18032 0.4426317
vt -2.18032 0.4909016
vt -1.974149 0.4426317
vt -1.974149 0.4909016
vt 2.34524 0.341715
vt 2.34524 0.2763158
vt 2.29524 0.341715
vt -2.29524 0.341715
vt -2.29524 0.4071142
vt -2.23524 0.341715
vt -2.23524 0.4071142
vt 2.29524 0.4071142
vt 2.23524 0.4071142
vt 2.23524 0.341715
vt -1.066053 2.23524
vt -1.066053 2.29524
vt -0.933947 2.23524
vt -0.933947 2.29524
vt -0.9278591 -2.23032
vt -0.9278591 -1.924149
vt -0.9216658 -2.23032
vt -0.9216658 -1.924149
vt -1.1092 2.23032
vt -1.0792 1.974149
vt -1.1092 1.924149
vt -0.8908 1.924149
vt -0.9208 1.974149
vt -0.9208 2.18032
vt -0.8908 2.23032
vt -1.0792 2.18032
vt -0.8456503 0.3155669
vt -0.8918497 0.4033806
vt -0.7946745 0.3529093
vt -0.840874 0.440723
vt -0.8918497 -2.256088
vt -0.8918497 -1.868472
vt -0.840874 -2.256088
vt -0.840874 -1.868472
vt -1.0592 -2.23032
vt -1.0592 -1.924149
vt -0.9408 -2.23032
vt -0.9408 -1.924149
vt 2.23032 0.5499017
vt 2.23032 0.4909016
vt 1.924149 0.5499017
vt 1.924149 0.4909016
vt -2.23032 0.4909016
vt -2.23032 0.5499017
vt -1.924149 0.4909016
vt -1.924149 0.5499017
vt 1.1092 0.4909016
vt 0.8908 0.4909016
vt 1.1092 0.5499017
vt 0.8908 0.5499017
vt 1.108772 0.5576027
vt 0.8912277 0.5576027
vt 1.107496 0.565172
vt 0.8925037 0.565172
vt 1.105394 0.57248
vt 0.894606 0.57248
vt 1.102501 0.5794017
vt 0.8974987 0.5794017
vt 1.098868 0.5858185
vt 0.9011323 0.5858185
vt 1.094555 0.591621
vt 0.9054447 0.591621
vt 1.089638 0.5967095
vt 0.9103619 0.5967095
vt 1.0842 0.6009971
vt 0.9158 0.6009971
vt 1.078334 0.6044105
vt 0.9216658 0.6044105
vt 1.072141 0.6068912
vt 0.9278591 0.6068912
vt 1.065726 0.6083969
vt 0.9342737 0.6083969
vt 1.0592 0.6089016
vt 0.9408 0.6089016
vt -2.23032 0.5794017
vt -2.23032 0.5858185
vt -1.924149 0.5794017
vt -1.924149 0.5858185
vt -0.9158 -2.23032
vt -0.9158 -1.924149
vt -0.9103619 -2.23032
vt -0.9103619 -1.924149
vt -1.1092 0.4909016
vt -0.9208516 0.5209532
vt -0.8908 0.4909016
vt -0.8908 0.5499017
vt -0.9208516 0.5490677
vt -0.9211401 0.5542613
vt -0.8912277 0.5576027
vt -0.9218544 0.5584989
vt -0.8925037 0.565172
vt -0.923005 0.5624986
vt -0.9245338 0.5661567
vt -0.894606 0.57248
vt -0.926364 0.5693889
vt -0.9284053 0.5721354
vt -0.930562 0.5743673
vt -0.8974987 0.5794017
vt -0.9327441 0.5760878
vt -0.9348806 0.577331
vt -0.9369309 0.5781522
vt -0.938893 0.5786128
vt -0.9419604 0.57885
vt -1.05804 0.57885
vt -1.1092 0.5499017
vt -1.079148 0.5209532
vt -1.079148 0.5490677
vt -1.07886 0.5542613
vt -1.108772 0.5576027
vt -1.078146 0.5584989
vt -1.107496 0.565172
vt -1.076995 0.5624986
vt -1.075466 0.5661567
vt -1.105394 0.57248
vt -1.073636 0.5693889
vt -1.071595 0.5721354
vt -1.069438 0.5743673
vt -1.102501 0.5794017
vt -1.067256 0.5760878
vt -1.065119 0.577331
vt -1.063069 0.5781522
vt -1.061107 0.5786128
vt -0.9011323 0.5858185
vt -1.098868 0.5858185
vt -0.9054447 0.591621
vt -1.094555 0.591621
vt -0.9103619 0.5967095
vt -1.089638 0.5967095
vt -0.9158 0.6009971
vt -1.0842 0.6009971
vt -0.9216658 0.6044105
vt -1.078334 0.6044105
vt -0.9278591 0.6068912
vt -1.072141 0.6068912
vt -0.9342737 0.6083969
vt -1.065726 0.6083969
vt -0.9408 0.6089016
vt -1.0592 0.6089016
vt -2.23032 0.57248
vt -1.924149 0.57248
vt -2.23032 0.565172
vt -1.924149 0.565172
vt -2.23032 0.5576027
vt -1.924149 0.5576027
vt -0.9342737 -2.23032
vt -0.9342737 -1.924149
vt -2.23032 0.591621
vt -1.924149 0.591621
vt -2.23032 0.5967095
vt -1.924149 0.5967095
vt -1.065726 -2.23032
vt -1.065726 -1.924149
vt 2.23032 0.565172
vt 2.23032 0.5576027
vt 1.924149 0.565172
vt 1.924149 0.5576027
vt -1.089638 -2.23032
vt -1.089638 -1.924149
vt -1.0842 -2.23032
vt -1.0842 -1.924149
vt 2.23032 0.57248
vt 1.924149 0.57248
vt 2.23032 0.5967095
vt 2.23032 0.591621
vt 1.924149 0.5967095
vt 1.924149 0.591621
vt -1.078334 -2.23032
vt -1.078334 -1.924149
vt -1.072141 -2.23032
vt -1.072141 -1.924149
vt 2.23032 0.5858185
vt 1.924149 0.5858185
vt -1.205287 1.868545
vt -1.205287 2.256015
vt -1.154311 1.868545
vt -1.154311 2.256015
vt -1.159165 -2.256015
vt -1.159165 -1.868545
vt -1.108189 -2.256015
vt -1.108189 -1.868545
vt 2.256015 0.4406497
vt 2.256015 0.3529826
vt 1.868545 0.4406497
vt 1.868545 0.3529826
vt -0.8456503 1.868472
vt -0.8456503 2.256088
vt -0.7946745 1.868472
vt -0.7946745 2.256088
vt -1.154311 0.3156402
vt -1.205287 0.3529826
vt -1.108189 0.4033073
vt -1.159165 0.4406497
vt 2.23032 0.5794017
vt 1.924149 0.5794017
vt -2.256088 0.3529093
vt -2.256088 0.440723
vt -1.868472 0.3529093
vt -1.868472 0.440723
vt 1.154311 0.3156402
vt 1.108189 0.4033073
vt 1.205287 0.3529826
vt 1.159165 0.4406497
vt 0.8456503 0.3155669
vt 0.7946745 0.3529093
vt 0.8918497 0.4033806
vt 0.840874 0.440723
vt -2.34524 0.2763158
vt -2.34524 0.341715
vt -1.10046 -2.34524
vt -1.10046 -2.29524
vt -0.89954 -2.34524
vt -1.10046 -2.23524
vt -0.89954 -2.23524
vt 0.89954 0.341715
vt 2.34524 0.1455175
vt 2.29524 0.1455175
vt -1.066053 2.34524
vt -0.933947 2.34524
vt -2.34524 0.1455175
vt -2.29524 0.1455175

usemtl tire (Instance)
usemap tire (Instance)
f 3/3/1 2/2/1 1/1/1
f 2/2/1 3/3/1 4/4/1
f 4/7/2 5/6/2 2/5/2
f 5/6/2 4/7/2 6/8/2
f 5/6/2 6/8/2 7/9/2
f 7/9/2 6/8/2 8/10/2
f 8/10/2 6/8/2 9/11/2
f 8/10/2 9/11/2 10/12/2
f 10/12/2 9/11/2 11/13/2
f 12/14/2 2/5/2 5/6/2
f 2/5/2 12/14/2 13/15/2
f 13/15/2 12/14/2 14/16/2
f 13/15/2 14/16/2 15/17/2
f 13/15/2 15/17/2 16/18/2
f 16/18/2 15/17/2 11/13/2
f 16/18/2 11/13/2 9/11/2
f 17/21/3 3/20/3 1/19/3
f 3/20/3 17/21/3 18/22/3
f 18/22/3 17/21/3 19/23/3
f 19/23/3 17/21/3 20/24/3
f 17/27/4 2/26/4 13/25/4
f 2/26/4 17/27/4 1/28/4
f 16/30/7 21/29/6 13/25/5
f 21/29/6 16/30/7 20/31/7
f 21/29/6 20/31/7 22/32/6
f 22/32/6 20/31/7 23/33/8
f 24/34/7 13/25/5 21/29/6
f 13/25/5 24/34/7 17/27/7
f 17/27/7 24/34/7 23/33/8
f 17/27/7 23/33/8 20/31/7
f 3/37/9 6/36/9 4/35/9
f 6/36/9 3/37/9 18/38/9
f 27/41/10 26/40/10 25/39/10
f 26/40/10 27/41/10 28/42/10
f 6/36/12 29/44/12 9/43/11
f 29/44/12 6/36/12 18/38/12
f 29/44/12 18/38/12 30/45/12
f 30/45/12 18/38/12 31/46/12
f 32/47/11 9/43/11 29/44/12
f 9/43/11 32/47/11 19/48/11
f 19/48/11 32/47/11 31/46/12
f 19/48/11 31/46/12 18/38/12
f 28/51/3 34/50/3 33/49/3
f 34/50/3 28/51/3 27/52/3
f 16/55/13 26/54/13 20/53/13
f 26/54/13 16/55/13 9/56/13
f 26/54/13 9/56/13 35/57/13
f 35/57/13 9/56/13 33/58/13
f 28/59/13 20/53/13 26/54/13
f 20/53/13 28/59/13 19/60/13
f 19/60/13 28/59/13 33/58/13
f 19/60/13 33/58/13 9/56/13
f 36/63/2 26/62/2 35/61/2
f 26/62/2 36/63/2 25/64/2
f 33/67/14 36/66/14 35/65/14
f 36/66/14 33/67/14 34/68/14
f 15/71/8 38/70/8 37/69/8
f 38/70/8 15/71/8 14/25/8
f 39/74/15 11/73/15 15/72/15
f 11/73/15 39/74/15 40/75/15
f 41/77/16 8/71/16 10/76/16
f 8/71/16 41/77/16 42/78/16
f 41/81/1 11/80/1 40/79/1
f 11/80/1 41/81/1 10/82/1

usemtl _defaultMat (Instance) (Instance)
usemap _defaultMat (Instance) (Instance)
f 45/85/19 44/84/18 43/83/17
f 44/84/18 45/85/19 46/86/20
f 48/89/1 27/88/1 47/87/1
f 27/88/1 48/89/1 49/90/1
f 27/88/1 49/90/1 34/91/1
f 34/91/1 49/90/1 36/92/1
f 47/87/1 25/94/1 50/93/1
f 25/94/1 47/87/1 27/88/1
f 50/93/1 25/94/1 36/92/1
f 50/93/1 36/92/1 49/90/1
f 51/97/2 32/96/2 29/95/2
f 32/96/2 51/97/2 52/98/2
f 52/101/21 31/100/21 32/99/21
f 31/100/21 52/101/21 53/102/21
f 56/105/24 55/104/23 54/103/22
f 55/104/23 56/105/24 57/106/25
f 59/109/27 47/108/10 58/107/26
f 47/108/10 59/109/27 48/110/10
f 49/113/14 60/112/28 50/111/14
f 60/112/28 49/113/14 61/114/29
f 59/117/3 49/116/3 48/115/3
f 49/116/3 59/117/3 61/118/3
f 61/118/3 59/117/3 62/119/3
f 61/118/3 62/119/3 63/120/3
f 63/120/3 62/119/3 64/121/3
f 63/120/3 64/121/3 65/122/3
f 65/122/3 64/121/3 66/123/3
f 65/122/3 66/123/3 67/124/3
f 67/124/3 66/123/3 68/125/3
f 67/124/3 68/125/3 69/126/3
f 69/126/3 68/125/3 70/127/3
f 69/126/3 70/127/3 71/128/3
f 71/128/3 70/127/3 72/129/3
f 71/128/3 72/129/3 73/130/3
f 73/130/3 72/129/3 74/131/3
f 73/130/3 74/131/3 75/132/3
f 75/132/3 74/131/3 76/133/3
f 75/132/3 76/133/3 77/134/3
f 77/134/3 76/133/3 78/135/3
f 77/134/3 78/135/3 46/136/3
f 46/136/3 78/135/3 79/137/3
f 46/136/3 79/137/3 44/138/3
f 44/138/3 79/137/3 80/139/3
f 44/138/3 80/139/3 81/140/3
f 81/140/3 80/139/3 55/141/3
f 81/140/3 55/141/3 57/142/3
f 69/145/32 83/144/31 82/143/30
f 83/144/31 69/145/32 71/146/33
f 85/149/36 77/148/35 84/147/34
f 77/148/35 85/149/36 75/150/36
f 50/153/2 86/152/2 47/151/2
f 86/152/2 50/153/2 60/154/2
f 86/152/2 60/154/2 87/155/2
f 87/155/2 60/154/2 88/156/2
f 88/156/2 60/154/2 89/157/2
f 88/156/2 89/157/2 90/158/2
f 90/158/2 89/157/2 91/159/2
f 90/158/2 91/159/2 92/160/2
f 92/160/2 91/159/2 93/161/2
f 93/161/2 91/159/2 94/162/2
f 93/161/2 94/162/2 95/163/2
f 95/163/2 94/162/2 96/164/2
f 96/164/2 94/162/2 97/165/2
f 97/165/2 94/162/2 82/166/2
f 97/165/2 82/166/2 98/167/2
f 98/167/2 82/166/2 99/168/2
f 99/168/2 82/166/2 100/169/2
f 100/169/2 82/166/2 101/170/2
f 101/170/2 82/166/2 102/171/2
f 102/171/2 82/166/2 103/172/2
f 47/151/2 104/174/2 58/173/2
f 104/174/2 47/151/2 86/152/2
f 58/173/2 104/174/2 105/175/2
f 58/173/2 105/175/2 106/176/2
f 58/173/2 106/176/2 107/177/2
f 107/177/2 106/176/2 108/178/2
f 107/177/2 108/178/2 109/179/2
f 109/179/2 108/178/2 110/180/2
f 109/179/2 110/180/2 111/181/2
f 109/179/2 111/181/2 112/182/2
f 112/182/2 111/181/2 113/183/2
f 112/182/2 113/183/2 114/184/2
f 112/182/2 114/184/2 115/185/2
f 112/182/2 115/185/2 116/186/2
f 116/186/2 115/185/2 117/187/2
f 116/186/2 117/187/2 118/188/2
f 116/186/2 118/188/2 119/189/2
f 116/186/2 119/189/2 120/190/2
f 116/186/2 120/190/2 103/172/2
f 116/186/2 103/172/2 82/166/2
f 116/186/2 82/166/2 83/191/2
f 116/186/2 83/191/2 121/192/2
f 121/192/2 83/191/2 122/193/2
f 121/192/2 122/193/2 123/194/2
f 123/194/2 122/193/2 85/195/2
f 123/194/2 85/195/2 124/196/2
f 124/196/2 85/195/2 84/197/2
f 124/196/2 84/197/2 125/198/2
f 125/198/2 84/197/2 45/199/2
f 125/198/2 45/199/2 126/200/2
f 126/200/2 45/199/2 43/201/2
f 126/200/2 43/201/2 127/202/2
f 127/202/2 43/201/2 128/203/2
f 127/202/2 128/203/2 129/204/2
f 129/204/2 128/203/2 56/205/2
f 129/204/2 56/205/2 54/206/2
f 67/208/38 82/143/30 94/207/37
f 82/143/30 67/208/38 69/145/32
f 65/210/40 94/207/37 91/209/39
f 94/207/37 65/210/40 67/208/38
f 63/212/42 91/209/39 89/211/41
f 91/209/39 63/212/42 65/210/40
f 43/83/17 81/214/44 128/213/43
f 81/214/44 43/83/17 44/84/18
f 71/146/33 122/215/45 83/144/31
f 122/215/45 71/146/33 73/216/46
f 73/216/46 85/217/36 122/215/45
f 85/217/36 73/216/46 75/218/36
f 128/213/43 57/106/25 56/105/24
f 57/106/25 128/213/43 81/214/44
f 61/114/29 89/211/41 60/112/28
f 89/211/41 61/114/29 63/212/42
f 84/147/34 46/86/20 45/85/19
f 46/86/20 84/147/34 77/148/35
f 54/103/22 80/220/48 129/219/47
f 80/220/48 54/103/22 55/104/23
f 64/223/51 107/222/50 109/221/49
f 107/222/50 64/223/51 62/224/52
f 125/227/54 74/226/53 124/225/53
f 74/226/53 125/227/54 76/228/55
f 66/230/57 109/221/49 112/229/56
f 109/221/49 66/230/57 64/223/51
f 74/233/53 123/232/58 124/231/53
f 123/232/58 74/233/53 72/234/59
f 127/237/62 78/236/61 126/235/60
f 78/236/61 127/237/62 79/238/63
f 72/234/59 121/239/64 123/232/58
f 121/239/64 72/234/59 70/240/65
f 23/243/66 131/242/66 130/241/66
f 131/242/66 23/243/66 24/244/66
f 129/219/47 79/238/63 127/237/62
f 79/238/63 129/219/47 80/220/48
f 21/247/67 133/246/67 132/245/67
f 133/246/67 21/247/67 22/248/67
f 133/251/6 131/250/6 132/249/6
f 131/250/6 133/251/6 130/252/6
f 134/255/68 29/254/68 30/253/68
f 29/254/68 134/255/68 51/256/68
f 21/259/2 131/258/2 24/257/2
f 131/258/2 21/259/2 132/260/2
f 68/262/70 112/229/56 116/261/69
f 112/229/56 68/262/70 66/230/57
f 70/240/65 116/261/69 121/239/64
f 116/261/69 70/240/65 68/262/70
f 134/265/11 52/264/11 51/263/11
f 52/264/11 134/265/11 53/266/11
f 130/269/3 22/268/3 23/267/3
f 22/268/3 130/269/3 133/270/3
f 126/235/60 76/228/55 125/227/54
f 76/228/55 126/235/60 78/236/61
f 62/224/52 58/107/26 107/222/50
f 58/107/26 62/224/52 59/109/27
f 31/273/3 134/272/3 30/271/3
f 134/272/3 31/273/3 53/274/3
f 137/9/2 136/14/2 135/6/2
f 136/14/2 137/9/2 38/16/2
f 38/16/2 137/9/2 138/10/2
f 38/16/2 138/10/2 37/17/2
f 7/36/12 138/276/12 137/275/12
f 138/276/12 7/36/12 8/72/12
f 138/279/13 15/278/13 37/277/13
f 15/278/13 138/279/13 39/280/13
f 39/280/13 138/279/13 42/281/13
f 42/282/13 138/282/13 8/282/13
f 14/25/71 136/283/71 38/70/71
f 136/283/71 14/25/71 12/284/71
f 5/82/1 136/285/1 12/80/1
f 136/285/1 5/82/1 135/286/1
f 5/288/72 137/275/72 135/287/72
f 137/275/72 5/288/72 7/36/72
f 41/12/2 39/17/2 42/10/2
f 39/17/2 41/12/2 40/13/2

usemtl lightRed (Instance)
usemap lightRed (Instance)
f 87/155/2 104/174/2 86/152/2
f 104/174/2 87/155/2 105/175/2
f 105/175/2 87/155/2 106/176/2
f 106/176/2 87/155/2 88/156/2
f 106/176/2 88/156/2 90/158/2
f 106/176/2 90/158/2 108/178/2
f 108/178/2 90/158/2 92/160/2
f 108/178/2 92/160/2 110/180/2
f 110/180/2 92/160/2 93/161/2
f 110/180/2 93/161/2 111/181/2
f 111/181/2 93/161/2 95/163/2
f 111/181/2 95/163/2 113/183/2
f 113/183/2 95/163/2 96/164/2
f 113/183/2 96/164/2 114/184/2
f 114/184/2 96/164/2 97/165/2
f 114/184/2 97/165/2 115/185/2
f 115/185/2 97/165/2 98/167/2
f 115/185/2 98/167/2 117/187/2
f 117/187/2 98/167/2 99/168/2
f 117/187/2 99/168/2 118/188/2
f 118/188/2 99/168/2 119/189/2
f 119/189/2 99/168/2 100/169/2
f 119/189/2 100/169/2 120/190/2
f 120/190/2 100/169/2 101/170/2
f 120/190/2 101/170/2 102/171/2
f 120/190/2 102/171/2 103/172/2
