# Made using Asset Forge (www.assetforge.io) version 1.3 

mtllib Trapézio .mtl 

g ship_cargoBody_0

v -0.72 0.5 -1.5
v -0.72 0.5 -0.5
v -1.28 0.5 -1.5
v -1.28 0.5 -0.5
v -1.39 0.25 -1.5
v -1.39 0.25 -0.5
v -0.61 0.25 -0.5
v -0.61 0.25 -1.5
v -0.5 0 -1.5
v -0.5 0 -0.5
v -1.5 0 -0.5
v -1.5 0 -1.5
vn 0 1 0
vn -0.915315 0.4027386 0
vn 0 0 1
vn 0 0 -1
vn 0.915315 0.4027386 0
vn 0 -1 0
vt 0.72 -1.5
vt 0.72 -0.5
vt 1.28 -1.5
vt 1.28 -0.5
vt -1.5 0.25
vt -1.5 0.5
vt -0.5 0.25
vt -0.5 0.5
vt -0.61 0.25
vt -1.39 0.25
vt -0.72 0.5
vt -1.28 0.5
vt 1.39 0.25
vt 0.61 0.25
vt 1.28 0.5
vt 0.72 0.5
vt 1.5 0.5
vt 1.5 0.25
vt 0.5 0.5
vt 0.5 0.25
vt 1.5 0
vt 0.5 0
vt 0.5 1.5
vt 1.5 1.5
vt -1.5 0
vt -0.5 0

usemtl blueSteel (Instance)
usemap blueSteel (Instance)
f 3/3/1 2/2/1 1/1/1
f 2/2/1 3/3/1 4/4/1
f 6/7/2 3/6/2 5/5/2
f 3/6/2 6/7/2 4/8/2
f 2/11/3 6/10/3 7/9/3
f 6/10/3 2/11/3 4/12/3
f 3/15/4 8/14/4 5/13/4
f 8/14/4 3/15/4 1/16/4
f 2/19/5 8/18/5 1/17/5
f 8/18/5 2/19/5 7/20/5

usemtl _defaultMat (Instance)
usemap _defaultMat (Instance)
f 7/20/5 9/21/5 8/18/5
f 9/21/5 7/20/5 10/22/5
f 11/17/6 9/23/6 10/19/6
f 9/23/6 11/17/6 12/24/6
f 11/26/2 5/5/2 12/25/2
f 5/5/2 11/26/2 6/7/2
f 5/13/4 9/22/4 12/21/4
f 9/22/4 5/13/4 8/14/4
f 7/9/3 11/25/3 10/26/3
f 11/25/3 7/9/3 6/10/3
